<svg width="1543" height="480" viewBox="0 0 1543 480" fill="none" xmlns="http://www.w3.org/2000/svg">
<rect x="80" y="23" width="23" height="23" fill="#FFFF00"/>
<rect x="126" y="23" width="23" height="23" fill="#FFFF00"/>
<rect x="103" width="23" height="23" fill="#FFFF00"/>
<rect x="103" width="23" height="23" fill="#FFFF00"/>
<rect x="103" y="23" width="23" height="23" fill="#FFFF00"/>
<rect x="103" y="46" width="23" height="23" fill="#FFFF00"/>
<rect x="103" y="69" width="23" height="23" fill="#FFFF00"/>
<rect x="57" y="46" width="23" height="23" fill="#FFFF00"/>
<rect x="149" y="46" width="23" height="23" fill="#FFFF00"/>
<rect x="103" y="92" width="23" height="23" fill="#FFFF00"/>
<rect x="57" y="69" width="23" height="23" fill="#FFFF00"/>
<rect x="149" y="69" width="23" height="23" fill="#FFFF00"/>
<rect x="149" y="92" width="23" height="23" fill="#FFFF00"/>
<rect x="149" y="115" width="23" height="23" fill="#FFFF00"/>
<rect x="149" y="138" width="23" height="23" fill="#FFFF00"/>
<rect x="149" y="161" width="23" height="23" fill="#FFFF00"/>
<rect x="149" y="184" width="23" height="23" fill="#FFFF00"/>
<rect x="149" y="207" width="23" height="23" fill="#FFFF00"/>
<rect x="149" y="230" width="23" height="23" fill="#FFFF00"/>
<rect x="172" y="237" width="23" height="23" fill="#FFFF00"/>
<rect x="34" y="238" width="23" height="23" fill="#FFFF00"/>
<rect x="195" y="260" width="23" height="23" fill="#FFFF00"/>
<rect x="11" y="261" width="23" height="23" fill="#FFFF00"/>
<rect x="11" y="284" width="23" height="23" fill="#FFFF00"/>
<rect x="11" y="307" width="23" height="23" fill="#FFFF00"/>
<rect x="103" y="299" width="23" height="23" fill="#FFFF00"/>
<rect x="103" y="276" width="23" height="23" fill="#FFFF00"/>
<rect x="34" y="284" width="23" height="23" fill="#FFFF00"/>
<rect x="195" y="283" width="23" height="23" fill="#FFFF00"/>
<rect x="172" y="283" width="23" height="23" fill="#FFFF00"/>
<rect x="195" y="306" width="23" height="23" fill="#FFFF00"/>
<rect x="149" y="253" width="23" height="23" fill="#FFFF00"/>
<rect x="57" y="46" width="23" height="23" fill="#FFFF00"/>
<rect x="149" y="276" width="23" height="23" fill="#FFFF00"/>
<rect x="80" y="46" width="23" height="23" fill="#FFFF00"/>
<rect x="149" y="299" width="23" height="23" fill="#FFFF00"/>
<rect x="126" y="46" width="23" height="23" fill="#FFFF00"/>
<rect x="57" y="92" width="23" height="23" fill="#FFFF00"/>
<rect x="57" y="69" width="23" height="23" fill="#FFFF00"/>
<rect x="57" y="92" width="23" height="23" fill="#FFFF00"/>
<rect x="80" y="69" width="23" height="23" fill="#FFFF00"/>
<rect x="80" y="92" width="23" height="23" fill="#FFFF00"/>
<rect x="126" y="69" width="23" height="23" fill="#FFFF00"/>
<rect x="126" y="92" width="23" height="23" fill="#FFFF00"/>
<rect x="57" y="115" width="23" height="23" fill="#FFFF00"/>
<rect x="80" y="115" width="23" height="23" fill="#FFFF00"/>
<rect x="103" y="115" width="23" height="23" fill="#FFFF00"/>
<rect x="126" y="115" width="23" height="23" fill="#FFFF00"/>
<rect x="57" y="138" width="23" height="23" fill="#FFFF00"/>
<rect x="57" y="161" width="23" height="23" fill="#FFFF00"/>
<rect x="57" y="184" width="23" height="23" fill="#FFFF00"/>
<rect x="57" y="207" width="23" height="23" fill="#FFFF00"/>
<rect x="57" y="230" width="23" height="23" fill="#FFFF00"/>
<rect x="57" y="253" width="23" height="23" fill="#FFFF00"/>
<rect x="103" y="138" width="23" height="23" fill="#FFFF00"/>
<rect x="103" y="161" width="23" height="23" fill="#FFFF00"/>
<rect x="103" y="184" width="23" height="23" fill="#FFFF00"/>
<rect x="103" y="207" width="23" height="23" fill="#FFFF00"/>
<rect x="103" y="230" width="23" height="23" fill="#FFFF00"/>
<rect x="103" y="253" width="23" height="23" fill="#FFFF00"/>
<rect x="80" y="299" width="23" height="23" fill="#FFFF00"/>
<rect x="80" y="276" width="23" height="23" fill="#FFFF00"/>
<rect x="80" y="138" width="23" height="23" fill="#FFFF00"/>
<rect x="80" y="161" width="23" height="23" fill="#FFFF00"/>
<rect x="80" y="184" width="23" height="23" fill="#FFFF00"/>
<rect x="80" y="207" width="23" height="23" fill="#FFFF00"/>
<rect x="80" y="230" width="23" height="23" fill="#FFFF00"/>
<rect x="80" y="253" width="23" height="23" fill="#FFFF00"/>
<rect x="126" y="299" width="23" height="23" fill="#FFFF00"/>
<rect x="126" y="276" width="23" height="23" fill="#FFFF00"/>
<rect x="126" y="138" width="23" height="23" fill="#FFFF00"/>
<rect x="126" y="161" width="23" height="23" fill="#FFFF00"/>
<rect x="126" y="184" width="23" height="23" fill="#FFFF00"/>
<rect x="126" y="207" width="23" height="23" fill="#FFFF00"/>
<rect x="126" y="230" width="23" height="23" fill="#FFFF00"/>
<rect x="126" y="253" width="23" height="23" fill="#FFFF00"/>
<rect x="34" y="261" width="23" height="23" fill="#FFFF00"/>
<rect x="172" y="260" width="23" height="23" fill="#FFFF00"/>
<rect x="57" y="276" width="23" height="23" fill="#FFFF00"/>
<rect x="57" y="299" width="23" height="23" fill="#FFFF00"/>
<rect x="126" y="322" width="23" height="23" fill="#FFFF00"/>
<rect x="103" y="322" width="23" height="23" fill="#FFFF00"/>
<rect x="80" y="322" width="23" height="23" fill="#FFFF00"/>
<rect x="57" y="345" width="23" height="23" fill="#FFFF00"/>
<rect x="57" y="368" width="23" height="23" fill="#FFFF00"/>
<rect x="80" y="345" width="23" height="23" fill="#FFFF00"/>
<rect x="80" y="368" width="23" height="23" fill="#FFFF00"/>
<rect x="126" y="345" width="23" height="23" fill="#FFFF00"/>
<rect x="126" y="368" width="23" height="23" fill="#FFFF00"/>
<rect x="80" y="391" width="23" height="23" fill="#FFFF00"/>
<rect x="80" y="414" width="23" height="23" fill="#FFFF00"/>
<rect x="103" y="414" width="23" height="23" fill="#FFFF00"/>
<rect x="103" y="437" width="23" height="23" fill="#FFFF00"/>
<rect x="103" y="391" width="23" height="23" fill="#FFFF00"/>
<rect x="103" y="368" width="23" height="23" fill="#FFFF00"/>
<rect x="103" y="345" width="23" height="23" fill="#FFFF00"/>
<rect x="126" y="391" width="23" height="23" fill="#FFFF00"/>
<rect x="126" y="414" width="23" height="23" fill="#FFFF00"/>
<rect x="149" y="368" width="23" height="23" fill="#FFFF00"/>
<rect x="149" y="345" width="23" height="23" fill="#FFFF00"/>
<rect x="80" y="43" width="23" height="23" fill="#FFFF00"/>
<rect x="126" y="43" width="23" height="23" fill="#FFFF00"/>
<rect x="103" y="20" width="23" height="23" fill="#FFFF00"/>
<rect x="103" y="20" width="23" height="23" fill="#FFFF00"/>
<rect x="103" y="43" width="23" height="23" fill="#FFFF00"/>
<rect x="103" y="66" width="23" height="23" fill="#FFFF00"/>
<rect x="103" y="89" width="23" height="23" fill="#FFFF00"/>
<rect x="57" y="66" width="23" height="23" fill="#FFFF00"/>
<rect x="149" y="66" width="23" height="23" fill="#FFFF00"/>
<rect x="103" y="112" width="23" height="23" fill="#FFFF00"/>
<rect x="57" y="89" width="23" height="23" fill="#FFFF00"/>
<rect x="149" y="89" width="23" height="23" fill="#FFFF00"/>
<rect x="149" y="112" width="23" height="23" fill="#FFFF00"/>
<rect x="149" y="135" width="23" height="23" fill="#FFFF00"/>
<rect x="149" y="158" width="23" height="23" fill="#FFFF00"/>
<rect x="149" y="181" width="23" height="23" fill="#FFFF00"/>
<rect x="149" y="204" width="23" height="23" fill="#FFFF00"/>
<rect x="149" y="227" width="23" height="23" fill="#FFFF00"/>
<rect x="149" y="250" width="23" height="23" fill="#FFFF00"/>
<rect x="172" y="257" width="23" height="23" fill="#FFFF00"/>
<rect x="34" y="258" width="23" height="23" fill="#FFFF00"/>
<rect x="195" y="280" width="23" height="23" fill="#FFFF00"/>
<rect x="11" y="281" width="23" height="23" fill="#FFFF00"/>
<rect x="11" y="304" width="23" height="23" fill="#FFFF00"/>
<rect x="11" y="327" width="23" height="23" fill="#FFFF00"/>
<rect x="103" y="319" width="23" height="23" fill="#FFFF00"/>
<rect x="103" y="296" width="23" height="23" fill="#FFFF00"/>
<rect x="34" y="304" width="23" height="23" fill="#FFFF00"/>
<rect x="195" y="303" width="23" height="23" fill="#FFFF00"/>
<rect x="172" y="303" width="23" height="23" fill="#FFFF00"/>
<rect x="195" y="326" width="23" height="23" fill="#FFFF00"/>
<rect x="149" y="273" width="23" height="23" fill="#FFFF00"/>
<rect x="57" y="66" width="23" height="23" fill="#FFFF00"/>
<rect x="149" y="296" width="23" height="23" fill="#FFFF00"/>
<rect x="80" y="66" width="23" height="23" fill="#FFFF00"/>
<rect x="149" y="319" width="23" height="23" fill="#FFFF00"/>
<rect x="126" y="66" width="23" height="23" fill="#FFFF00"/>
<rect x="57" y="112" width="23" height="23" fill="#FFFF00"/>
<rect x="57" y="89" width="23" height="23" fill="#FFFF00"/>
<rect x="57" y="112" width="23" height="23" fill="#FFFF00"/>
<rect x="80" y="89" width="23" height="23" fill="#FFFF00"/>
<rect x="80" y="112" width="23" height="23" fill="#FFFF00"/>
<rect x="126" y="89" width="23" height="23" fill="#FFFF00"/>
<rect x="126" y="112" width="23" height="23" fill="#FFFF00"/>
<rect x="57" y="135" width="23" height="23" fill="#FFFF00"/>
<rect x="80" y="135" width="23" height="23" fill="#FFFF00"/>
<rect x="103" y="135" width="23" height="23" fill="#FFFF00"/>
<rect x="126" y="135" width="23" height="23" fill="#FFFF00"/>
<rect x="57" y="158" width="23" height="23" fill="#FFFF00"/>
<rect x="57" y="181" width="23" height="23" fill="#FFFF00"/>
<rect x="57" y="204" width="23" height="23" fill="#FFFF00"/>
<rect x="57" y="227" width="23" height="23" fill="#FFFF00"/>
<rect x="57" y="250" width="23" height="23" fill="#FFFF00"/>
<rect x="57" y="273" width="23" height="23" fill="#FFFF00"/>
<rect x="103" y="158" width="23" height="23" fill="#FFFF00"/>
<rect x="103" y="181" width="23" height="23" fill="#FFFF00"/>
<rect x="103" y="204" width="23" height="23" fill="#FFFF00"/>
<rect x="103" y="227" width="23" height="23" fill="#FFFF00"/>
<rect x="103" y="250" width="23" height="23" fill="#FFFF00"/>
<rect x="103" y="273" width="23" height="23" fill="#FFFF00"/>
<rect x="80" y="319" width="23" height="23" fill="#FFFF00"/>
<rect x="80" y="296" width="23" height="23" fill="#FFFF00"/>
<rect x="80" y="158" width="23" height="23" fill="#FFFF00"/>
<rect x="80" y="181" width="23" height="23" fill="#FFFF00"/>
<rect x="80" y="204" width="23" height="23" fill="#FFFF00"/>
<rect x="80" y="227" width="23" height="23" fill="#FFFF00"/>
<rect x="80" y="250" width="23" height="23" fill="#FFFF00"/>
<rect x="80" y="273" width="23" height="23" fill="#FFFF00"/>
<rect x="126" y="319" width="23" height="23" fill="#FFFF00"/>
<rect x="126" y="296" width="23" height="23" fill="#FFFF00"/>
<rect x="126" y="158" width="23" height="23" fill="#FFFF00"/>
<rect x="126" y="181" width="23" height="23" fill="#FFFF00"/>
<rect x="126" y="204" width="23" height="23" fill="#FFFF00"/>
<rect x="126" y="227" width="23" height="23" fill="#FFFF00"/>
<rect x="126" y="250" width="23" height="23" fill="#FFFF00"/>
<rect x="126" y="273" width="23" height="23" fill="#FFFF00"/>
<rect x="34" y="281" width="23" height="23" fill="#FFFF00"/>
<rect x="172" y="280" width="23" height="23" fill="#FFFF00"/>
<rect x="57" y="296" width="23" height="23" fill="#FFFF00"/>
<rect x="57" y="319" width="23" height="23" fill="#FFFF00"/>
<rect x="126" y="342" width="23" height="23" fill="#FFFF00"/>
<rect x="103" y="342" width="23" height="23" fill="#FFFF00"/>
<rect x="80" y="342" width="23" height="23" fill="#FFFF00"/>
<rect x="57" y="365" width="23" height="23" fill="#FFFF00"/>
<rect x="57" y="388" width="23" height="23" fill="#FFFF00"/>
<rect x="80" y="365" width="23" height="23" fill="#FFFF00"/>
<rect x="80" y="388" width="23" height="23" fill="#FFFF00"/>
<rect x="126" y="365" width="23" height="23" fill="#FFFF00"/>
<rect x="126" y="388" width="23" height="23" fill="#FFFF00"/>
<rect x="80" y="411" width="23" height="23" fill="#FFFF00"/>
<rect x="80" y="434" width="23" height="23" fill="#FFFF00"/>
<rect x="103" y="434" width="23" height="23" fill="#FFFF00"/>
<rect x="103" y="457" width="23" height="23" fill="#FFFF00"/>
<rect x="103" y="411" width="23" height="23" fill="#FFFF00"/>
<rect x="103" y="388" width="23" height="23" fill="#FFFF00"/>
<rect x="103" y="365" width="23" height="23" fill="#FFFF00"/>
<rect x="126" y="411" width="23" height="23" fill="#FFFF00"/>
<rect x="126" y="434" width="23" height="23" fill="#FFFF00"/>
<rect x="149" y="388" width="23" height="23" fill="#FFFF00"/>
<rect x="149" y="365" width="23" height="23" fill="#FFFF00"/>
<rect x="69" y="33" width="23" height="23" fill="#FF00FF"/>
<rect x="115" y="33" width="23" height="23" fill="#FF00FF"/>
<rect x="92" y="10" width="23" height="23" fill="#FF00FF"/>
<rect x="92" y="10" width="23" height="23" fill="#FF00FF"/>
<rect x="92" y="33" width="23" height="23" fill="#FF00FF"/>
<rect x="92" y="56" width="23" height="23" fill="#FF00FF"/>
<rect x="92" y="79" width="23" height="23" fill="#FF00FF"/>
<rect x="46" y="56" width="23" height="23" fill="#FF00FF"/>
<rect x="138" y="56" width="23" height="23" fill="#FF00FF"/>
<rect x="92" y="102" width="23" height="23" fill="#FF00FF"/>
<rect x="46" y="79" width="23" height="23" fill="#FF00FF"/>
<rect x="138" y="79" width="23" height="23" fill="#FF00FF"/>
<rect x="138" y="102" width="23" height="23" fill="#FF00FF"/>
<rect x="138" y="125" width="23" height="23" fill="#FF00FF"/>
<rect x="138" y="148" width="23" height="23" fill="#FF00FF"/>
<rect x="138" y="171" width="23" height="23" fill="#FF00FF"/>
<rect x="138" y="194" width="23" height="23" fill="#FF00FF"/>
<rect x="138" y="217" width="23" height="23" fill="#FF00FF"/>
<rect x="138" y="240" width="23" height="23" fill="#FF00FF"/>
<rect x="161" y="247" width="23" height="23" fill="#FF00FF"/>
<rect x="23" y="248" width="23" height="23" fill="#FF00FF"/>
<rect x="184" y="270" width="23" height="23" fill="#FF00FF"/>
<rect y="271" width="23" height="23" fill="#FF00FF"/>
<rect y="294" width="23" height="23" fill="#FF00FF"/>
<rect y="317" width="23" height="23" fill="#FF00FF"/>
<rect x="92" y="309" width="23" height="23" fill="#FF00FF"/>
<rect x="92" y="286" width="23" height="23" fill="#FF00FF"/>
<rect x="23" y="294" width="23" height="23" fill="#FF00FF"/>
<rect x="184" y="293" width="23" height="23" fill="#FF00FF"/>
<rect x="161" y="293" width="23" height="23" fill="#FF00FF"/>
<rect x="184" y="316" width="23" height="23" fill="#FF00FF"/>
<rect x="138" y="263" width="23" height="23" fill="#FF00FF"/>
<rect x="46" y="56" width="23" height="23" fill="#FF00FF"/>
<rect x="138" y="286" width="23" height="23" fill="#FF00FF"/>
<rect x="69" y="56" width="23" height="23" fill="#FF00FF"/>
<rect x="138" y="309" width="23" height="23" fill="#FF00FF"/>
<rect x="115" y="56" width="23" height="23" fill="#FF00FF"/>
<rect x="46" y="102" width="23" height="23" fill="#FF00FF"/>
<rect x="46" y="79" width="23" height="23" fill="#FF00FF"/>
<rect x="46" y="102" width="23" height="23" fill="#FF00FF"/>
<rect x="69" y="79" width="23" height="23" fill="#FF00FF"/>
<rect x="69" y="102" width="23" height="23" fill="#FF00FF"/>
<rect x="115" y="79" width="23" height="23" fill="#FF00FF"/>
<rect x="115" y="102" width="23" height="23" fill="#FF00FF"/>
<rect x="46" y="125" width="23" height="23" fill="#FF00FF"/>
<rect x="69" y="125" width="23" height="23" fill="#FF00FF"/>
<rect x="92" y="125" width="23" height="23" fill="#FF00FF"/>
<rect x="115" y="125" width="23" height="23" fill="#FF00FF"/>
<rect x="46" y="148" width="23" height="23" fill="#FF00FF"/>
<rect x="46" y="171" width="23" height="23" fill="#FF00FF"/>
<rect x="46" y="194" width="23" height="23" fill="#FF00FF"/>
<rect x="46" y="217" width="23" height="23" fill="#FF00FF"/>
<rect x="46" y="240" width="23" height="23" fill="#FF00FF"/>
<rect x="46" y="263" width="23" height="23" fill="#FF00FF"/>
<rect x="92" y="148" width="23" height="23" fill="#FF00FF"/>
<rect x="92" y="171" width="23" height="23" fill="#FF00FF"/>
<rect x="92" y="194" width="23" height="23" fill="#FF00FF"/>
<rect x="92" y="217" width="23" height="23" fill="#FF00FF"/>
<rect x="92" y="240" width="23" height="23" fill="#FF00FF"/>
<rect x="92" y="263" width="23" height="23" fill="#FF00FF"/>
<rect x="69" y="309" width="23" height="23" fill="#FF00FF"/>
<rect x="69" y="286" width="23" height="23" fill="#FF00FF"/>
<rect x="69" y="148" width="23" height="23" fill="#FF00FF"/>
<rect x="69" y="171" width="23" height="23" fill="#FF00FF"/>
<rect x="69" y="194" width="23" height="23" fill="#FF00FF"/>
<rect x="69" y="217" width="23" height="23" fill="#FF00FF"/>
<rect x="69" y="240" width="23" height="23" fill="#FF00FF"/>
<rect x="69" y="263" width="23" height="23" fill="#FF00FF"/>
<rect x="115" y="309" width="23" height="23" fill="#FF00FF"/>
<rect x="115" y="286" width="23" height="23" fill="#FF00FF"/>
<rect x="115" y="148" width="23" height="23" fill="#FF00FF"/>
<rect x="115" y="171" width="23" height="23" fill="#FF00FF"/>
<rect x="115" y="194" width="23" height="23" fill="#FF00FF"/>
<rect x="115" y="217" width="23" height="23" fill="#FF00FF"/>
<rect x="115" y="240" width="23" height="23" fill="#FF00FF"/>
<rect x="115" y="263" width="23" height="23" fill="#FF00FF"/>
<rect x="23" y="271" width="23" height="23" fill="#FF00FF"/>
<rect x="161" y="270" width="23" height="23" fill="#FF00FF"/>
<rect x="46" y="286" width="23" height="23" fill="#FF00FF"/>
<rect x="46" y="309" width="23" height="23" fill="#FF00FF"/>
<rect x="115" y="332" width="23" height="23" fill="#FF00FF"/>
<rect x="92" y="332" width="23" height="23" fill="#FF00FF"/>
<rect x="69" y="332" width="23" height="23" fill="#FF00FF"/>
<rect x="46" y="355" width="23" height="23" fill="#FF00FF"/>
<rect x="46" y="378" width="23" height="23" fill="#FF00FF"/>
<rect x="69" y="355" width="23" height="23" fill="#FF00FF"/>
<rect x="69" y="378" width="23" height="23" fill="#FF00FF"/>
<rect x="115" y="355" width="23" height="23" fill="#FF00FF"/>
<rect x="115" y="378" width="23" height="23" fill="#FF00FF"/>
<rect x="69" y="401" width="23" height="23" fill="#FF00FF"/>
<rect x="69" y="424" width="23" height="23" fill="#FF00FF"/>
<rect x="92" y="424" width="23" height="23" fill="#FF00FF"/>
<rect x="92" y="447" width="23" height="23" fill="#FF00FF"/>
<rect x="92" y="401" width="23" height="23" fill="#FF00FF"/>
<rect x="92" y="378" width="23" height="23" fill="#FF00FF"/>
<rect x="92" y="355" width="23" height="23" fill="#FF00FF"/>
<rect x="115" y="401" width="23" height="23" fill="#FF00FF"/>
<rect x="115" y="424" width="23" height="23" fill="#FF00FF"/>
<rect x="138" y="378" width="23" height="23" fill="#FF00FF"/>
<rect x="138" y="355" width="23" height="23" fill="#FF00FF"/>
<rect x="90" y="33" width="23" height="23" fill="#00FFFF"/>
<rect x="136" y="33" width="23" height="23" fill="#00FFFF"/>
<rect x="113" y="10" width="23" height="23" fill="#00FFFF"/>
<rect x="113" y="10" width="23" height="23" fill="#00FFFF"/>
<rect x="113" y="33" width="23" height="23" fill="#00FFFF"/>
<rect x="113" y="56" width="23" height="23" fill="#00FFFF"/>
<rect x="113" y="79" width="23" height="23" fill="#00FFFF"/>
<rect x="67" y="56" width="23" height="23" fill="#00FFFF"/>
<rect x="159" y="56" width="23" height="23" fill="#00FFFF"/>
<rect x="113" y="102" width="23" height="23" fill="#00FFFF"/>
<rect x="67" y="79" width="23" height="23" fill="#00FFFF"/>
<rect x="159" y="79" width="23" height="23" fill="#00FFFF"/>
<rect x="159" y="102" width="23" height="23" fill="#00FFFF"/>
<rect x="159" y="125" width="23" height="23" fill="#00FFFF"/>
<rect x="159" y="148" width="23" height="23" fill="#00FFFF"/>
<rect x="159" y="171" width="23" height="23" fill="#00FFFF"/>
<rect x="159" y="194" width="23" height="23" fill="#00FFFF"/>
<rect x="159" y="217" width="23" height="23" fill="#00FFFF"/>
<rect x="159" y="240" width="23" height="23" fill="#00FFFF"/>
<rect x="182" y="247" width="23" height="23" fill="#00FFFF"/>
<rect x="44" y="248" width="23" height="23" fill="#00FFFF"/>
<rect x="205" y="270" width="23" height="23" fill="#00FFFF"/>
<rect x="21" y="271" width="23" height="23" fill="#00FFFF"/>
<rect x="21" y="294" width="23" height="23" fill="#00FFFF"/>
<rect x="21" y="317" width="23" height="23" fill="#00FFFF"/>
<rect x="113" y="309" width="23" height="23" fill="#00FFFF"/>
<rect x="113" y="286" width="23" height="23" fill="#00FFFF"/>
<rect x="44" y="294" width="23" height="23" fill="#00FFFF"/>
<rect x="205" y="293" width="23" height="23" fill="#00FFFF"/>
<rect x="182" y="293" width="23" height="23" fill="#00FFFF"/>
<rect x="205" y="316" width="23" height="23" fill="#00FFFF"/>
<rect x="159" y="263" width="23" height="23" fill="#00FFFF"/>
<rect x="67" y="56" width="23" height="23" fill="#00FFFF"/>
<rect x="159" y="286" width="23" height="23" fill="#00FFFF"/>
<rect x="90" y="56" width="23" height="23" fill="#00FFFF"/>
<rect x="159" y="309" width="23" height="23" fill="#00FFFF"/>
<rect x="136" y="56" width="23" height="23" fill="#00FFFF"/>
<rect x="67" y="102" width="23" height="23" fill="#00FFFF"/>
<rect x="67" y="79" width="23" height="23" fill="#00FFFF"/>
<rect x="67" y="102" width="23" height="23" fill="#00FFFF"/>
<rect x="90" y="79" width="23" height="23" fill="#00FFFF"/>
<rect x="90" y="102" width="23" height="23" fill="#00FFFF"/>
<rect x="136" y="79" width="23" height="23" fill="#00FFFF"/>
<rect x="136" y="102" width="23" height="23" fill="#00FFFF"/>
<rect x="67" y="125" width="23" height="23" fill="#00FFFF"/>
<rect x="90" y="125" width="23" height="23" fill="#00FFFF"/>
<rect x="113" y="125" width="23" height="23" fill="#00FFFF"/>
<rect x="136" y="125" width="23" height="23" fill="#00FFFF"/>
<rect x="67" y="148" width="23" height="23" fill="#00FFFF"/>
<rect x="67" y="171" width="23" height="23" fill="#00FFFF"/>
<rect x="67" y="194" width="23" height="23" fill="#00FFFF"/>
<rect x="67" y="217" width="23" height="23" fill="#00FFFF"/>
<rect x="67" y="240" width="23" height="23" fill="#00FFFF"/>
<rect x="67" y="263" width="23" height="23" fill="#00FFFF"/>
<rect x="113" y="148" width="23" height="23" fill="#00FFFF"/>
<rect x="113" y="171" width="23" height="23" fill="#00FFFF"/>
<rect x="113" y="194" width="23" height="23" fill="#00FFFF"/>
<rect x="113" y="217" width="23" height="23" fill="#00FFFF"/>
<rect x="113" y="240" width="23" height="23" fill="#00FFFF"/>
<rect x="113" y="263" width="23" height="23" fill="#00FFFF"/>
<rect x="90" y="309" width="23" height="23" fill="#00FFFF"/>
<rect x="90" y="286" width="23" height="23" fill="#00FFFF"/>
<rect x="90" y="148" width="23" height="23" fill="#00FFFF"/>
<rect x="90" y="171" width="23" height="23" fill="#00FFFF"/>
<rect x="90" y="194" width="23" height="23" fill="#00FFFF"/>
<rect x="90" y="217" width="23" height="23" fill="#00FFFF"/>
<rect x="90" y="240" width="23" height="23" fill="#00FFFF"/>
<rect x="90" y="263" width="23" height="23" fill="#00FFFF"/>
<rect x="136" y="309" width="23" height="23" fill="#00FFFF"/>
<rect x="136" y="286" width="23" height="23" fill="#00FFFF"/>
<rect x="136" y="148" width="23" height="23" fill="#00FFFF"/>
<rect x="136" y="171" width="23" height="23" fill="#00FFFF"/>
<rect x="136" y="194" width="23" height="23" fill="#00FFFF"/>
<rect x="136" y="217" width="23" height="23" fill="#00FFFF"/>
<rect x="136" y="240" width="23" height="23" fill="#00FFFF"/>
<rect x="136" y="263" width="23" height="23" fill="#00FFFF"/>
<rect x="44" y="271" width="23" height="23" fill="#00FFFF"/>
<rect x="182" y="270" width="23" height="23" fill="#00FFFF"/>
<rect x="67" y="286" width="23" height="23" fill="#00FFFF"/>
<rect x="67" y="309" width="23" height="23" fill="#00FFFF"/>
<rect x="136" y="332" width="23" height="23" fill="#00FFFF"/>
<rect x="113" y="332" width="23" height="23" fill="#00FFFF"/>
<rect x="90" y="332" width="23" height="23" fill="#00FFFF"/>
<rect x="67" y="355" width="23" height="23" fill="#00FFFF"/>
<rect x="67" y="378" width="23" height="23" fill="#00FFFF"/>
<rect x="90" y="355" width="23" height="23" fill="#00FFFF"/>
<rect x="90" y="378" width="23" height="23" fill="#00FFFF"/>
<rect x="136" y="355" width="23" height="23" fill="#00FFFF"/>
<rect x="136" y="378" width="23" height="23" fill="#00FFFF"/>
<rect x="90" y="401" width="23" height="23" fill="#00FFFF"/>
<rect x="90" y="424" width="23" height="23" fill="#00FFFF"/>
<rect x="113" y="424" width="23" height="23" fill="#00FFFF"/>
<rect x="113" y="447" width="23" height="23" fill="#00FFFF"/>
<rect x="113" y="401" width="23" height="23" fill="#00FFFF"/>
<rect x="113" y="378" width="23" height="23" fill="#00FFFF"/>
<rect x="113" y="355" width="23" height="23" fill="#00FFFF"/>
<rect x="136" y="401" width="23" height="23" fill="#00FFFF"/>
<rect x="136" y="424" width="23" height="23" fill="#00FFFF"/>
<rect x="159" y="378" width="23" height="23" fill="#00FFFF"/>
<rect x="159" y="355" width="23" height="23" fill="#00FFFF"/>
<rect x="80" y="33" width="23" height="23" fill="black"/>
<rect x="126" y="33" width="23" height="23" fill="black"/>
<rect x="103" y="10" width="23" height="23" fill="black"/>
<rect x="103" y="10" width="23" height="23" fill="black"/>
<rect x="103" y="33" width="23" height="23" fill="#666666"/>
<rect x="103" y="56" width="23" height="23" fill="#999999"/>
<rect x="103" y="79" width="23" height="23" fill="#999999"/>
<rect x="57" y="56" width="23" height="23" fill="black"/>
<rect x="149" y="56" width="23" height="23" fill="black"/>
<rect x="103" y="102" width="23" height="23" fill="#999999"/>
<rect x="57" y="79" width="23" height="23" fill="black"/>
<rect x="149" y="79" width="23" height="23" fill="black"/>
<rect x="149" y="102" width="23" height="23" fill="black"/>
<rect x="149" y="125" width="23" height="23" fill="black"/>
<rect x="149" y="148" width="23" height="23" fill="black"/>
<rect x="149" y="171" width="23" height="23" fill="black"/>
<rect x="149" y="194" width="23" height="23" fill="black"/>
<rect x="149" y="217" width="23" height="23" fill="black"/>
<rect x="149" y="240" width="23" height="23" fill="black"/>
<rect x="172" y="247" width="23" height="23" fill="black"/>
<rect x="34" y="248" width="23" height="23" fill="black"/>
<rect x="195" y="270" width="23" height="23" fill="black"/>
<rect x="11" y="271" width="23" height="23" fill="black"/>
<rect x="11" y="294" width="23" height="23" fill="black"/>
<rect x="11" y="317" width="23" height="23" fill="black"/>
<rect x="103" y="309" width="23" height="23" fill="#999999"/>
<rect x="103" y="286" width="23" height="23" fill="#999999"/>
<rect x="34" y="294" width="23" height="23" fill="black"/>
<rect x="195" y="293" width="23" height="23" fill="black"/>
<rect x="172" y="293" width="23" height="23" fill="black"/>
<rect x="195" y="316" width="23" height="23" fill="black"/>
<rect x="149" y="263" width="23" height="23" fill="black"/>
<rect x="57" y="56" width="23" height="23" fill="black"/>
<rect x="149" y="286" width="23" height="23" fill="black"/>
<rect x="80" y="56" width="23" height="23" fill="#666666"/>
<rect x="149" y="309" width="23" height="23" fill="black"/>
<rect x="126" y="56" width="23" height="23" fill="#666666"/>
<rect x="57" y="102" width="23" height="23" fill="black"/>
<rect x="57" y="79" width="23" height="23" fill="black"/>
<rect x="57" y="102" width="23" height="23" fill="black"/>
<rect x="80" y="79" width="23" height="23" fill="#666666"/>
<rect x="80" y="102" width="23" height="23" fill="#666666"/>
<rect x="126" y="79" width="23" height="23" fill="#666666"/>
<rect x="126" y="102" width="23" height="23" fill="#666666"/>
<rect x="57" y="125" width="23" height="23" fill="black"/>
<rect x="80" y="125" width="23" height="23" fill="black"/>
<rect x="103" y="125" width="23" height="23" fill="#666666"/>
<rect x="126" y="125" width="23" height="23" fill="black"/>
<rect x="57" y="148" width="23" height="23" fill="black"/>
<rect x="57" y="171" width="23" height="23" fill="black"/>
<rect x="57" y="194" width="23" height="23" fill="black"/>
<rect x="57" y="217" width="23" height="23" fill="black"/>
<rect x="57" y="240" width="23" height="23" fill="black"/>
<rect x="57" y="263" width="23" height="23" fill="black"/>
<rect x="103" y="148" width="23" height="23" fill="#999999"/>
<rect x="103" y="171" width="23" height="23" fill="#999999"/>
<rect x="103" y="194" width="23" height="23" fill="#999999"/>
<rect x="103" y="217" width="23" height="23" fill="#999999"/>
<rect x="103" y="240" width="23" height="23" fill="#999999"/>
<rect x="103" y="263" width="23" height="23" fill="#999999"/>
<rect x="80" y="309" width="23" height="23" fill="#666666"/>
<rect x="80" y="286" width="23" height="23" fill="#666666"/>
<rect x="80" y="148" width="23" height="23" fill="#666666"/>
<rect x="80" y="171" width="23" height="23" fill="#666666"/>
<rect x="80" y="194" width="23" height="23" fill="#666666"/>
<rect x="80" y="217" width="23" height="23" fill="#666666"/>
<rect x="80" y="240" width="23" height="23" fill="#666666"/>
<rect x="80" y="263" width="23" height="23" fill="#666666"/>
<rect x="126" y="309" width="23" height="23" fill="#666666"/>
<rect x="126" y="286" width="23" height="23" fill="#666666"/>
<rect x="126" y="148" width="23" height="23" fill="#666666"/>
<rect x="126" y="171" width="23" height="23" fill="#666666"/>
<rect x="126" y="194" width="23" height="23" fill="#666666"/>
<rect x="126" y="217" width="23" height="23" fill="#666666"/>
<rect x="126" y="240" width="23" height="23" fill="#666666"/>
<rect x="126" y="263" width="23" height="23" fill="#666666"/>
<rect x="34" y="271" width="23" height="23" fill="#999999"/>
<rect x="172" y="270" width="23" height="23" fill="#999999"/>
<rect x="57" y="286" width="23" height="23" fill="black"/>
<rect x="57" y="309" width="23" height="23" fill="black"/>
<rect x="126" y="332" width="23" height="23" fill="black"/>
<rect x="103" y="332" width="23" height="23" fill="#666666"/>
<rect x="80" y="332" width="23" height="23" fill="black"/>
<rect x="57" y="355" width="23" height="23" fill="#FF0000"/>
<rect x="57" y="378" width="23" height="23" fill="#FF0000"/>
<rect x="80" y="355" width="23" height="23" fill="#FF9900"/>
<rect x="80" y="378" width="23" height="23" fill="#FF9900"/>
<rect x="126" y="355" width="23" height="23" fill="#FF9900"/>
<rect x="126" y="378" width="23" height="23" fill="#FF9900"/>
<rect x="80" y="401" width="23" height="23" fill="#FF0000"/>
<rect x="80" y="424" width="23" height="23" fill="#FF0000"/>
<rect x="103" y="424" width="23" height="23" fill="#FF9900"/>
<rect x="103" y="447" width="23" height="23" fill="#FF0000"/>
<rect x="103" y="401" width="23" height="23" fill="#FFFF00"/>
<rect x="103" y="378" width="23" height="23" fill="#FFFF00"/>
<rect x="103" y="355" width="23" height="23" fill="#FFFF00"/>
<rect x="126" y="401" width="23" height="23" fill="#FF0000"/>
<rect x="126" y="424" width="23" height="23" fill="#FF0000"/>
<rect x="149" y="378" width="23" height="23" fill="#FF0000"/>
<rect x="149" y="355" width="23" height="23" fill="#FF0000"/>
<path d="M385.784 270H339.378V139.091H386.168C399.335 139.091 410.67 141.712 420.173 146.953C429.676 152.152 436.984 159.631 442.098 169.389C447.254 179.148 449.832 190.824 449.832 204.418C449.832 218.054 447.254 229.773 442.098 239.574C436.984 249.375 429.634 256.896 420.045 262.138C410.5 267.379 399.08 270 385.784 270ZM367.055 246.286H384.634C392.815 246.286 399.697 244.837 405.28 241.939C410.905 238.999 415.124 234.46 417.936 228.324C420.791 222.145 422.219 214.176 422.219 204.418C422.219 194.744 420.791 186.839 417.936 180.703C415.124 174.567 410.926 170.05 405.344 167.152C399.761 164.254 392.879 162.805 384.697 162.805H367.055V246.286ZM514.568 271.918C504.468 271.918 495.775 269.872 488.488 265.781C481.244 261.648 475.662 255.81 471.741 248.267C467.821 240.682 465.86 231.712 465.86 221.357C465.86 211.257 467.821 202.393 471.741 194.766C475.662 187.138 481.18 181.193 488.297 176.932C495.456 172.67 503.85 170.54 513.481 170.54C519.958 170.54 525.988 171.584 531.571 173.672C537.196 175.717 542.096 178.807 546.272 182.94C550.491 187.074 553.772 192.273 556.116 198.537C558.46 204.759 559.632 212.045 559.632 220.398V227.876H476.727V211.001H534C534 207.081 533.147 203.608 531.443 200.582C529.738 197.557 527.373 195.192 524.348 193.487C521.365 191.74 517.892 190.866 513.929 190.866C509.795 190.866 506.13 191.825 502.934 193.743C499.781 195.618 497.309 198.153 495.52 201.349C493.73 204.503 492.814 208.018 492.771 211.896V227.94C492.771 232.798 493.666 236.996 495.456 240.533C497.288 244.07 499.866 246.797 503.19 248.714C506.514 250.632 510.456 251.591 515.015 251.591C518.041 251.591 520.811 251.165 523.325 250.312C525.839 249.46 527.991 248.182 529.781 246.477C531.571 244.773 532.934 242.685 533.872 240.213L559.056 241.875C557.778 247.926 555.157 253.21 551.194 257.727C547.274 262.202 542.203 265.696 535.981 268.21C529.802 270.682 522.664 271.918 514.568 271.918ZM577.402 306.818V171.818H604.248V188.31H605.463C606.656 185.668 608.382 182.983 610.64 180.256C612.941 177.486 615.924 175.185 619.589 173.352C623.297 171.477 627.899 170.54 633.396 170.54C640.555 170.54 647.16 172.415 653.211 176.165C659.262 179.872 664.099 185.476 667.721 192.976C671.343 200.433 673.154 209.787 673.154 221.037C673.154 231.989 671.386 241.236 667.849 248.778C664.355 256.278 659.582 261.967 653.531 265.845C647.522 269.68 640.789 271.598 633.332 271.598C628.048 271.598 623.552 270.724 619.845 268.977C616.18 267.23 613.176 265.036 610.832 262.393C608.488 259.709 606.699 257.003 605.463 254.276H604.632V306.818H577.402ZM604.056 220.909C604.056 226.747 604.866 231.839 606.485 236.186C608.105 240.533 610.449 243.92 613.517 246.349C616.585 248.736 620.314 249.929 624.703 249.929C629.135 249.929 632.885 248.714 635.953 246.286C639.021 243.814 641.343 240.405 642.92 236.058C644.539 231.669 645.349 226.619 645.349 220.909C645.349 215.241 644.561 210.256 642.984 205.952C641.407 201.648 639.085 198.281 636.017 195.852C632.949 193.423 629.177 192.209 624.703 192.209C620.271 192.209 616.521 193.381 613.453 195.724C610.427 198.068 608.105 201.392 606.485 205.696C604.866 210 604.056 215.071 604.056 220.909ZM718.538 139.091V270H691.308V139.091H718.538ZM784.712 271.918C774.783 271.918 766.196 269.808 758.952 265.589C751.75 261.328 746.189 255.405 742.268 247.82C738.348 240.192 736.388 231.349 736.388 221.293C736.388 211.151 738.348 202.287 742.268 194.702C746.189 187.074 751.75 181.151 758.952 176.932C766.196 172.67 774.783 170.54 784.712 170.54C794.641 170.54 803.206 172.67 810.408 176.932C817.652 181.151 823.234 187.074 827.155 194.702C831.075 202.287 833.036 211.151 833.036 221.293C833.036 231.349 831.075 240.192 827.155 247.82C823.234 255.405 817.652 261.328 810.408 265.589C803.206 269.808 794.641 271.918 784.712 271.918ZM784.839 250.824C789.357 250.824 793.128 249.545 796.153 246.989C799.179 244.389 801.459 240.852 802.993 236.378C804.57 231.903 805.358 226.811 805.358 221.101C805.358 215.391 804.57 210.298 802.993 205.824C801.459 201.349 799.179 197.812 796.153 195.213C793.128 192.614 789.357 191.314 784.839 191.314C780.28 191.314 776.445 192.614 773.334 195.213C770.266 197.812 767.943 201.349 766.366 205.824C764.832 210.298 764.065 215.391 764.065 221.101C764.065 226.811 764.832 231.903 766.366 236.378C767.943 240.852 770.266 244.389 773.334 246.989C776.445 249.545 780.28 250.824 784.839 250.824ZM864.388 306.818C860.937 306.818 857.698 306.541 854.673 305.987C851.69 305.476 849.218 304.815 847.258 304.006L853.394 283.679C856.59 284.659 859.467 285.192 862.023 285.277C864.623 285.362 866.86 284.766 868.735 283.487C870.653 282.209 872.208 280.036 873.401 276.967L874.999 272.812L839.779 171.818H868.415L888.742 243.92H889.765L910.283 171.818H939.112L900.951 280.611C899.119 285.895 896.626 290.497 893.472 294.418C890.362 298.381 886.42 301.428 881.647 303.558C876.874 305.732 871.121 306.818 864.388 306.818ZM994.626 271.918C984.527 271.918 975.834 269.872 968.547 265.781C961.303 261.648 955.72 255.81 951.8 248.267C947.879 240.682 945.919 231.712 945.919 221.357C945.919 211.257 947.879 202.393 951.8 194.766C955.72 187.138 961.239 181.193 968.355 176.932C975.514 172.67 983.909 170.54 993.54 170.54C1000.02 170.54 1006.05 171.584 1011.63 173.672C1017.25 175.717 1022.15 178.807 1026.33 182.94C1030.55 187.074 1033.83 192.273 1036.17 198.537C1038.52 204.759 1039.69 212.045 1039.69 220.398V227.876H956.786V211.001H1014.06C1014.06 207.081 1013.21 203.608 1011.5 200.582C1009.8 197.557 1007.43 195.192 1004.41 193.487C1001.42 191.74 997.95 190.866 993.987 190.866C989.854 190.866 986.189 191.825 982.993 193.743C979.839 195.618 977.368 198.153 975.578 201.349C973.788 204.503 972.872 208.018 972.83 211.896V227.94C972.83 232.798 973.724 236.996 975.514 240.533C977.347 244.07 979.925 246.797 983.249 248.714C986.572 250.632 990.514 251.591 995.074 251.591C998.099 251.591 1000.87 251.165 1003.38 250.312C1005.9 249.46 1008.05 248.182 1009.84 246.477C1011.63 244.773 1012.99 242.685 1013.93 240.213L1039.12 241.875C1037.84 247.926 1035.22 253.21 1031.25 257.727C1027.33 262.202 1022.26 265.696 1016.04 268.21C1009.86 270.682 1002.72 271.918 994.626 271.918ZM1057.46 270V171.818H1083.86V188.949H1084.88C1086.67 182.855 1089.68 178.253 1093.89 175.142C1098.11 171.989 1102.97 170.412 1108.47 170.412C1109.83 170.412 1111.3 170.497 1112.88 170.668C1114.46 170.838 1115.84 171.072 1117.03 171.371V195.533C1115.76 195.149 1113.99 194.808 1111.73 194.51C1109.47 194.212 1107.4 194.062 1105.53 194.062C1101.52 194.062 1097.94 194.936 1094.79 196.683C1091.68 198.388 1089.21 200.774 1087.38 203.842C1085.59 206.911 1084.69 210.447 1084.69 214.453V270H1057.46ZM1247.13 184.922H1219.13C1218.62 181.3 1217.58 178.082 1216 175.27C1214.42 172.415 1212.4 169.986 1209.93 167.983C1207.45 165.98 1204.6 164.446 1201.36 163.381C1198.17 162.315 1194.69 161.783 1190.94 161.783C1184.17 161.783 1178.26 163.466 1173.24 166.832C1168.21 170.156 1164.31 175.014 1161.54 181.406C1158.77 187.756 1157.38 195.469 1157.38 204.545C1157.38 213.878 1158.77 221.719 1161.54 228.068C1164.35 234.418 1168.27 239.212 1173.3 242.45C1178.33 245.689 1184.15 247.308 1190.75 247.308C1194.46 247.308 1197.89 246.818 1201.04 245.838C1204.24 244.858 1207.07 243.43 1209.54 241.555C1212.01 239.638 1214.06 237.315 1215.68 234.588C1217.34 231.861 1218.49 228.75 1219.13 225.256L1247.13 225.384C1246.4 231.392 1244.59 237.188 1241.69 242.77C1238.84 248.31 1234.98 253.274 1230.13 257.663C1225.31 262.01 1219.56 265.462 1212.87 268.018C1206.22 270.533 1198.7 271.79 1190.3 271.79C1178.63 271.79 1168.19 269.148 1158.98 263.864C1149.82 258.58 1142.58 250.93 1137.25 240.916C1131.96 230.902 1129.32 218.778 1129.32 204.545C1129.32 190.27 1132.01 178.125 1137.38 168.111C1142.75 158.097 1150.03 150.469 1159.24 145.227C1168.44 139.943 1178.8 137.301 1190.3 137.301C1197.89 137.301 1204.92 138.366 1211.4 140.497C1217.92 142.628 1223.69 145.739 1228.72 149.83C1233.75 153.878 1237.84 158.842 1240.99 164.723C1244.19 170.604 1246.23 177.337 1247.13 184.922ZM1310.82 271.918C1300.9 271.918 1292.31 269.808 1285.06 265.589C1277.86 261.328 1272.3 255.405 1268.38 247.82C1264.46 240.192 1262.5 231.349 1262.5 221.293C1262.5 211.151 1264.46 202.287 1268.38 194.702C1272.3 187.074 1277.86 181.151 1285.06 176.932C1292.31 172.67 1300.9 170.54 1310.82 170.54C1320.75 170.54 1329.32 172.67 1336.52 176.932C1343.77 181.151 1349.35 187.074 1353.27 194.702C1357.19 202.287 1359.15 211.151 1359.15 221.293C1359.15 231.349 1357.19 240.192 1353.27 247.82C1349.35 255.405 1343.77 261.328 1336.52 265.589C1329.32 269.808 1320.75 271.918 1310.82 271.918ZM1310.95 250.824C1315.47 250.824 1319.24 249.545 1322.27 246.989C1325.29 244.389 1327.57 240.852 1329.11 236.378C1330.68 231.903 1331.47 226.811 1331.47 221.101C1331.47 215.391 1330.68 210.298 1329.11 205.824C1327.57 201.349 1325.29 197.812 1322.27 195.213C1319.24 192.614 1315.47 191.314 1310.95 191.314C1306.39 191.314 1302.56 192.614 1299.45 195.213C1296.38 197.812 1294.06 201.349 1292.48 205.824C1290.95 210.298 1290.18 215.391 1290.18 221.101C1290.18 226.811 1290.95 231.903 1292.48 236.378C1294.06 240.852 1296.38 244.389 1299.45 246.989C1302.56 249.545 1306.39 250.824 1310.95 250.824ZM1376.85 270V171.818H1403.25V188.949H1404.28C1406.07 182.855 1409.07 178.253 1413.29 175.142C1417.51 171.989 1422.37 170.412 1427.86 170.412C1429.23 170.412 1430.7 170.497 1432.27 170.668C1433.85 170.838 1435.24 171.072 1436.43 171.371V195.533C1435.15 195.149 1433.38 194.808 1431.12 194.51C1428.86 194.212 1426.8 194.062 1424.92 194.062C1420.92 194.062 1417.34 194.936 1414.18 196.683C1411.07 198.388 1408.6 200.774 1406.77 203.842C1404.98 206.911 1404.08 210.447 1404.08 214.453V270H1376.85ZM1490.68 271.918C1480.58 271.918 1471.89 269.872 1464.6 265.781C1457.36 261.648 1451.77 255.81 1447.85 248.267C1443.93 240.682 1441.97 231.712 1441.97 221.357C1441.97 211.257 1443.93 202.393 1447.85 194.766C1451.77 187.138 1457.29 181.193 1464.41 176.932C1471.57 172.67 1479.96 170.54 1489.59 170.54C1496.07 170.54 1502.1 171.584 1507.68 173.672C1513.31 175.717 1518.21 178.807 1522.39 182.94C1526.6 187.074 1529.89 192.273 1532.23 198.537C1534.57 204.759 1535.75 212.045 1535.75 220.398V227.876H1452.84V211.001H1510.11C1510.11 207.081 1509.26 203.608 1507.56 200.582C1505.85 197.557 1503.49 195.192 1500.46 193.487C1497.48 191.74 1494 190.866 1490.04 190.866C1485.91 190.866 1482.24 191.825 1479.05 193.743C1475.89 195.618 1473.42 198.153 1471.63 201.349C1469.84 204.503 1468.93 208.018 1468.88 211.896V227.94C1468.88 232.798 1469.78 236.996 1471.57 240.533C1473.4 244.07 1475.98 246.797 1479.3 248.714C1482.63 250.632 1486.57 251.591 1491.13 251.591C1494.15 251.591 1496.92 251.165 1499.44 250.312C1501.95 249.46 1504.1 248.182 1505.89 246.477C1507.68 244.773 1509.05 242.685 1509.99 240.213L1535.17 241.875C1533.89 247.926 1531.27 253.21 1527.31 257.727C1523.39 262.202 1518.32 265.696 1512.09 268.21C1505.92 270.682 1498.78 271.918 1490.68 271.918Z" fill="black"/>
<path d="M402.422 374.042V377H383.398V339.01H386.588V374.042H402.422ZM418.604 374.506C420.035 374.506 421.581 374.061 423.244 373.172C424.945 372.244 426.183 371.393 426.956 370.62V363.718C424.404 363.525 421.968 363.428 419.648 363.428C417.328 363.428 415.588 363.931 414.428 364.936C413.268 365.903 412.688 367.217 412.688 368.88C412.688 372.631 414.66 374.506 418.604 374.506ZM418.546 377.522C415.723 377.522 413.5 376.807 411.876 375.376C410.252 373.907 409.44 371.838 409.44 369.17C409.44 366.502 410.329 364.433 412.108 362.964C413.887 361.456 416.245 360.702 419.184 360.702C422.123 360.702 424.713 360.818 426.956 361.05C426.956 357.609 426.531 355.269 425.68 354.032C424.829 352.756 423.109 352.118 420.518 352.118C417.927 352.118 414.873 352.737 411.354 353.974L410.484 351.074C414.08 349.759 417.328 349.102 420.228 349.102C424.056 349.102 426.647 349.953 428 351.654C429.353 353.355 430.03 356.333 430.03 360.586V372.766L430.494 377.174L427.536 377.464L426.956 373.984C426.067 374.757 424.81 375.55 423.186 376.362C421.562 377.135 420.015 377.522 418.546 377.522ZM455.492 377L455.376 374.622C451.664 376.555 448.571 377.522 446.096 377.522C443.621 377.522 441.669 376.671 440.238 374.97C438.807 373.269 438.092 370.949 438.092 368.01V349.45H441.166V368.01C441.166 369.905 441.611 371.471 442.5 372.708C443.428 373.907 444.82 374.506 446.676 374.506C448.532 374.506 451.432 373.539 455.376 371.606V349.45H458.45V377H455.492ZM469.006 349.45L469.122 351.77C472.873 349.991 475.985 349.102 478.46 349.102C480.935 349.102 482.868 349.953 484.26 351.654C485.691 353.355 486.406 355.675 486.406 358.614V377H483.332V358.614C483.332 356.719 482.868 355.153 481.94 353.916C481.012 352.717 479.62 352.118 477.764 352.118C475.908 352.118 473.027 352.969 469.122 354.67V377H466.048V349.45H469.006ZM513.144 350.378L512.448 353.394C510.051 352.543 507.827 352.118 505.778 352.118C502.994 352.118 500.906 353.104 499.514 355.076C498.161 357.009 497.484 359.716 497.484 363.196C497.484 366.676 498.18 369.441 499.572 371.49C500.964 373.501 503.033 374.506 505.778 374.506C507.634 374.506 509.954 374.003 512.738 372.998L513.666 375.898C510.843 376.981 508.233 377.522 505.836 377.522C502.047 377.522 499.147 376.265 497.136 373.752C495.125 371.2 494.12 367.662 494.12 363.138C494.12 358.614 495.106 355.153 497.078 352.756C499.05 350.32 501.95 349.102 505.778 349.102C508.214 349.102 510.669 349.527 513.144 350.378ZM524.918 354.496V377H521.844V338.488H524.918V351.538C528.553 349.914 531.549 349.102 533.908 349.102C539.437 349.102 542.202 352.273 542.202 358.614V377H539.128V358.614C539.128 356.642 538.703 355.076 537.852 353.916C537.001 352.717 535.532 352.118 533.444 352.118C531.356 352.118 528.514 352.911 524.918 354.496ZM577.466 388.136V354.438L576.944 349.392L579.844 349.044L580.366 352.176C583.189 350.127 585.876 349.102 588.428 349.102C591.869 349.102 594.537 350.359 596.432 352.872C598.327 355.385 599.274 358.846 599.274 363.254C599.274 367.662 598.23 371.142 596.142 373.694C594.054 376.246 591.154 377.522 587.442 377.522C585.277 377.522 582.976 377 580.54 375.956V388.136H577.466ZM595.968 363.37C595.968 359.929 595.311 357.203 593.996 355.192C592.681 353.143 590.787 352.118 588.312 352.118C585.876 352.118 583.285 353.22 580.54 355.424V372.824C581.352 373.211 582.454 373.597 583.846 373.984C585.277 374.332 586.437 374.506 587.326 374.506C590.071 374.506 592.198 373.501 593.706 371.49C595.214 369.479 595.968 366.773 595.968 363.37ZM605.538 377V374.1H612.15V352.35H605.538V349.45H615.224L615.34 352.814C616.577 352.041 618.317 351.267 620.56 350.494C622.803 349.721 624.775 349.257 626.476 349.102H627.114V352.524H626.476C624.891 352.64 622.919 353.027 620.56 353.684C618.24 354.341 616.5 355.018 615.34 355.714V374.1H624.62V377H605.538ZM632.102 363.312C632.102 353.839 635.795 349.102 643.18 349.102C650.565 349.102 654.258 353.839 654.258 363.312C654.258 372.785 650.565 377.522 643.18 377.522C635.795 377.522 632.102 372.785 632.102 363.312ZM643.18 352.118C637.999 352.118 635.408 355.849 635.408 363.312C635.408 370.775 637.999 374.506 643.18 374.506C648.361 374.506 650.952 370.775 650.952 363.312C650.952 355.849 648.361 352.118 643.18 352.118ZM681.344 338.488V372.186L681.924 377.232L678.966 377.58L678.386 374.506C675.486 376.517 672.818 377.522 670.382 377.522C666.941 377.522 664.253 376.246 662.32 373.694C660.425 371.142 659.478 367.681 659.478 363.312C659.478 358.904 660.541 355.443 662.668 352.93C664.795 350.378 667.695 349.102 671.368 349.102C673.533 349.102 675.834 349.624 678.27 350.668V338.488H681.344ZM662.784 363.196C662.784 366.599 663.441 369.344 664.756 371.432C666.109 373.481 668.043 374.506 670.556 374.506C673.069 374.506 675.641 373.404 678.27 371.2V353.8C677.458 353.413 676.337 353.046 674.906 352.698C673.514 352.311 672.373 352.118 671.484 352.118C668.739 352.118 666.593 353.123 665.046 355.134C663.538 357.106 662.784 359.793 662.784 363.196ZM690.74 364.646V361.514H707.386V364.646H690.74ZM716.898 377V374.1H723.51V352.35H716.898V349.45H726.584L726.7 352.814C727.937 352.041 729.677 351.267 731.92 350.494C734.163 349.721 736.135 349.257 737.836 349.102H738.474V352.524H737.836C736.251 352.64 734.279 353.027 731.92 353.684C729.6 354.341 727.86 355.018 726.7 355.714V374.1H735.98V377H716.898ZM743.926 363.254C743.926 358.807 744.835 355.347 746.652 352.872C748.508 350.359 751.195 349.102 754.714 349.102C758.233 349.102 760.843 350.262 762.544 352.582C764.284 354.902 765.154 357.995 765.154 361.862L764.98 364.762H747.232C747.425 367.662 748.199 370.021 749.552 371.838C750.905 373.617 752.761 374.506 755.12 374.506C757.517 374.506 760.321 373.945 763.53 372.824L764.4 375.724C761.268 376.923 758.329 377.522 755.584 377.522C751.795 377.522 748.895 376.265 746.884 373.752C744.912 371.2 743.926 367.701 743.926 363.254ZM754.946 352.06C750.074 352.06 747.503 355.327 747.232 361.862H761.848C761.848 355.327 759.547 352.06 754.946 352.06ZM780.524 374.506C781.955 374.506 783.501 374.061 785.164 373.172C786.865 372.244 788.103 371.393 788.876 370.62V363.718C786.324 363.525 783.888 363.428 781.568 363.428C779.248 363.428 777.508 363.931 776.348 364.936C775.188 365.903 774.608 367.217 774.608 368.88C774.608 372.631 776.58 374.506 780.524 374.506ZM780.466 377.522C777.643 377.522 775.42 376.807 773.796 375.376C772.172 373.907 771.36 371.838 771.36 369.17C771.36 366.502 772.249 364.433 774.028 362.964C775.807 361.456 778.165 360.702 781.104 360.702C784.043 360.702 786.633 360.818 788.876 361.05C788.876 357.609 788.451 355.269 787.6 354.032C786.749 352.756 785.029 352.118 782.438 352.118C779.847 352.118 776.793 352.737 773.274 353.974L772.404 351.074C776 349.759 779.248 349.102 782.148 349.102C785.976 349.102 788.567 349.953 789.92 351.654C791.273 353.355 791.95 356.333 791.95 360.586V372.766L792.414 377.174L789.456 377.464L788.876 373.984C787.987 374.757 786.73 375.55 785.106 376.362C783.482 377.135 781.935 377.522 780.466 377.522ZM820.544 338.488V372.186L821.124 377.232L818.166 377.58L817.586 374.506C814.686 376.517 812.018 377.522 809.582 377.522C806.141 377.522 803.453 376.246 801.52 373.694C799.625 371.142 798.678 367.681 798.678 363.312C798.678 358.904 799.741 355.443 801.868 352.93C803.995 350.378 806.895 349.102 810.568 349.102C812.733 349.102 815.034 349.624 817.47 350.668V338.488H820.544ZM801.984 363.196C801.984 366.599 802.641 369.344 803.956 371.432C805.309 373.481 807.243 374.506 809.756 374.506C812.269 374.506 814.841 373.404 817.47 371.2V353.8C816.658 353.413 815.537 353.046 814.106 352.698C812.714 352.311 811.573 352.118 810.684 352.118C807.939 352.118 805.793 353.123 804.246 355.134C802.738 357.106 801.984 359.793 801.984 363.196ZM826.75 349.45H830.23L838.408 372.882H838.872L846.18 349.45H849.66L838.988 381.698C837.983 384.753 836.919 386.705 835.798 387.556C834.715 388.407 832.492 388.871 829.128 388.948V385.99C831.293 385.951 832.743 385.642 833.478 385.062C834.213 384.482 834.889 383.264 835.508 381.408L836.842 377.406L826.75 349.45ZM891.768 363.08H886.432V377H883.242V339.01H891.768C896.408 339.01 899.83 339.899 902.034 341.678C904.277 343.418 905.398 346.453 905.398 350.784C905.398 355.115 904.277 358.247 902.034 360.18C899.791 362.113 896.369 363.08 891.768 363.08ZM891.768 341.91H886.432V360.18H891.768C895.325 360.18 897.916 359.465 899.54 358.034C901.203 356.603 902.034 354.206 902.034 350.842C902.034 347.478 901.222 345.158 899.598 343.882C897.974 342.567 895.364 341.91 891.768 341.91ZM910.212 377V339.01H913.402V356.642H929.758V339.01H932.948V377H929.758V359.6H913.402V377H910.212ZM947.448 363.08H942.112V377H938.922V339.01H947.448C952.088 339.01 955.51 339.899 957.714 341.678C959.957 343.418 961.078 346.453 961.078 350.784C961.078 355.115 959.957 358.247 957.714 360.18C955.471 362.113 952.049 363.08 947.448 363.08ZM947.448 341.91H942.112V360.18H947.448C951.005 360.18 953.596 359.465 955.22 358.034C956.883 356.603 957.714 354.206 957.714 350.842C957.714 347.478 956.902 345.158 955.278 343.882C953.654 342.567 951.044 341.91 947.448 341.91ZM995.124 375.666L995.878 372.65C999.706 373.926 1002.66 374.564 1004.75 374.564C1006.84 374.564 1008.44 374.119 1009.57 373.23C1010.73 372.302 1011.31 371.084 1011.31 369.576C1011.31 368.068 1010.84 366.966 1009.91 366.27C1009.02 365.535 1007.15 364.839 1004.29 364.182C1001.43 363.525 999.281 362.577 997.85 361.34C996.419 360.18 995.704 358.44 995.704 356.12C995.704 353.8 996.574 352.041 998.314 350.842C1000.09 349.605 1002.37 348.986 1005.16 348.986C1007.94 348.986 1010.96 349.605 1014.21 350.842L1013.39 353.568C1010.11 352.485 1007.46 351.944 1005.45 351.944C1003.44 351.944 1001.85 352.292 1000.69 352.988C999.532 353.761 998.952 354.805 998.952 356.12C998.952 357.435 999.455 358.459 1000.46 359.194C1001.5 359.929 1003.5 360.663 1006.43 361.398C1009.37 362.133 1011.46 363.08 1012.7 364.24C1013.94 365.361 1014.55 367.14 1014.55 369.576C1014.55 372.012 1013.72 373.945 1012.06 375.376C1010.44 376.807 1008.12 377.522 1005.1 377.522C1002.08 377.522 998.759 376.903 995.124 375.666ZM1022.33 363.254C1022.33 358.807 1023.23 355.347 1025.05 352.872C1026.91 350.359 1029.6 349.102 1033.11 349.102C1036.63 349.102 1039.24 350.262 1040.94 352.582C1042.68 354.902 1043.55 357.995 1043.55 361.862L1043.38 364.762H1025.63C1025.83 367.662 1026.6 370.021 1027.95 371.838C1029.31 373.617 1031.16 374.506 1033.52 374.506C1035.92 374.506 1038.72 373.945 1041.93 372.824L1042.8 375.724C1039.67 376.923 1036.73 377.522 1033.98 377.522C1030.19 377.522 1027.29 376.265 1025.28 373.752C1023.31 371.2 1022.33 367.701 1022.33 363.254ZM1033.35 352.06C1028.47 352.06 1025.9 355.327 1025.63 361.862H1040.25C1040.25 355.327 1037.95 352.06 1033.35 352.06ZM1050.98 377V374.1H1057.59V352.35H1050.98V349.45H1060.66L1060.78 352.814C1062.02 352.041 1063.76 351.267 1066 350.494C1068.24 349.721 1070.21 349.257 1071.92 349.102H1072.55V352.524H1071.92C1070.33 352.64 1068.36 353.027 1066 353.684C1063.68 354.341 1061.94 355.018 1060.78 355.714V374.1H1070.06V377H1050.98ZM1077.19 349.45H1080.67L1088.27 374.216H1089.32L1096.62 349.45H1100.1L1091.69 377H1085.89L1077.19 349.45ZM1105.85 363.254C1105.85 358.807 1106.75 355.347 1108.57 352.872C1110.43 350.359 1113.12 349.102 1116.63 349.102C1120.15 349.102 1122.76 350.262 1124.46 352.582C1126.2 354.902 1127.07 357.995 1127.07 361.862L1126.9 364.762H1109.15C1109.35 367.662 1110.12 370.021 1111.47 371.838C1112.83 373.617 1114.68 374.506 1117.04 374.506C1119.44 374.506 1122.24 373.945 1125.45 372.824L1126.32 375.724C1123.19 376.923 1120.25 377.522 1117.5 377.522C1113.71 377.522 1110.81 376.265 1108.8 373.752C1106.83 371.2 1105.85 367.701 1105.85 363.254ZM1116.87 352.06C1111.99 352.06 1109.42 355.327 1109.15 361.862H1123.77C1123.77 355.327 1121.47 352.06 1116.87 352.06ZM1134.5 377V374.1H1141.11V352.35H1134.5V349.45H1144.18L1144.3 352.814C1145.54 352.041 1147.28 351.267 1149.52 350.494C1151.76 349.721 1153.73 349.257 1155.44 349.102H1156.07V352.524H1155.44C1153.85 352.64 1151.88 353.027 1149.52 353.684C1147.2 354.341 1145.46 355.018 1144.3 355.714V374.1H1153.58V377H1134.5ZM1162.16 375.666L1162.92 372.65C1166.75 373.926 1169.7 374.564 1171.79 374.564C1173.88 374.564 1175.48 374.119 1176.61 373.23C1177.77 372.302 1178.35 371.084 1178.35 369.576C1178.35 368.068 1177.88 366.966 1176.95 366.27C1176.06 365.535 1174.19 364.839 1171.33 364.182C1168.47 363.525 1166.32 362.577 1164.89 361.34C1163.46 360.18 1162.74 358.44 1162.74 356.12C1162.74 353.8 1163.61 352.041 1165.35 350.842C1167.13 349.605 1169.41 348.986 1172.2 348.986C1174.98 348.986 1178 349.605 1181.25 350.842L1180.43 353.568C1177.15 352.485 1174.5 351.944 1172.49 351.944C1170.48 351.944 1168.89 352.292 1167.73 352.988C1166.57 353.761 1165.99 354.805 1165.99 356.12C1165.99 357.435 1166.49 358.459 1167.5 359.194C1168.54 359.929 1170.54 360.663 1173.47 361.398C1176.41 362.133 1178.5 363.08 1179.74 364.24C1180.98 365.361 1181.59 367.14 1181.59 369.576C1181.59 372.012 1180.76 373.945 1179.1 375.376C1177.48 376.807 1175.16 377.522 1172.14 377.522C1169.12 377.522 1165.8 376.903 1162.16 375.666ZM1218.13 377V374.1H1226.6V352.35H1218.13V349.45H1229.68V374.1H1238.14V377H1218.13ZM1225.38 341.272C1225.38 340.499 1225.6 339.899 1226.02 339.474C1226.49 339.049 1227.1 338.836 1227.88 338.836C1229.46 338.836 1230.26 339.687 1230.26 341.388C1230.26 343.089 1229.46 343.921 1227.88 343.882C1226.22 343.882 1225.38 343.012 1225.38 341.272ZM1248.53 349.45L1248.64 351.77C1252.39 349.991 1255.51 349.102 1257.98 349.102C1260.45 349.102 1262.39 349.953 1263.78 351.654C1265.21 353.355 1265.93 355.675 1265.93 358.614V377H1262.85V358.614C1262.85 356.719 1262.39 355.153 1261.46 353.916C1260.53 352.717 1259.14 352.118 1257.28 352.118C1255.43 352.118 1252.55 352.969 1248.64 354.67V377H1245.57V349.45H1248.53ZM1301.77 349.45L1301.94 351.19C1303.88 349.798 1305.37 349.102 1306.41 349.102C1308.96 349.102 1310.72 349.933 1311.69 351.596C1313.85 349.933 1315.75 349.102 1317.37 349.102C1319.89 349.102 1321.61 349.875 1322.53 351.422C1323.46 352.969 1323.93 355.347 1323.93 358.556V377H1320.85V358.556C1320.85 356.352 1320.62 354.728 1320.16 353.684C1319.69 352.601 1318.8 352.06 1317.49 352.06C1316.17 352.06 1314.55 352.679 1312.62 353.916C1312.85 355.231 1312.96 356.777 1312.96 358.556V368.184H1309.89V358.556C1309.89 356.352 1309.66 354.728 1309.19 353.684C1308.69 352.601 1307.78 352.06 1306.47 352.06C1305.15 352.06 1303.65 352.679 1301.94 353.916V377H1298.87V349.45H1301.77ZM1329.49 377V374.1H1337.96V352.35H1329.49V349.45H1341.04V374.1H1349.5V377H1329.49ZM1336.74 341.272C1336.74 340.499 1336.96 339.899 1337.38 339.474C1337.85 339.049 1338.46 338.836 1339.24 338.836C1340.82 338.836 1341.62 339.687 1341.62 341.388C1341.62 343.089 1340.82 343.921 1339.24 343.882C1337.58 343.882 1336.74 343.012 1336.74 341.272ZM1359.89 349.45L1360 351.77C1363.75 349.991 1366.87 349.102 1369.34 349.102C1371.81 349.102 1373.75 349.953 1375.14 351.654C1376.57 353.355 1377.29 355.675 1377.29 358.614V377H1374.21V358.614C1374.21 356.719 1373.75 355.153 1372.82 353.916C1371.89 352.717 1370.5 352.118 1368.64 352.118C1366.79 352.118 1363.91 352.969 1360 354.67V377H1356.93V349.45H1359.89ZM1402.05 377L1401.94 374.622C1398.22 376.555 1395.13 377.522 1392.66 377.522C1390.18 377.522 1388.23 376.671 1386.8 374.97C1385.37 373.269 1384.65 370.949 1384.65 368.01V349.45H1387.73V368.01C1387.73 369.905 1388.17 371.471 1389.06 372.708C1389.99 373.907 1391.38 374.506 1393.24 374.506C1395.09 374.506 1397.99 373.539 1401.94 371.606V349.45H1405.01V377H1402.05ZM1411.45 353.104V350.204H1417.07V343.186L1420.15 342.606V350.204H1433.43V353.104H1420.15V366.328C1420.15 369.267 1420.57 371.393 1421.42 372.708C1422.31 373.984 1423.88 374.622 1426.12 374.622C1426.97 374.622 1428.29 374.487 1430.07 374.216C1431.84 373.907 1433.06 373.636 1433.72 373.404L1434.42 376.246C1433.68 376.517 1432.33 376.807 1430.36 377.116C1428.42 377.425 1427.01 377.58 1426.12 377.58C1422.64 377.58 1420.26 376.671 1418.99 374.854C1417.71 372.998 1417.07 370.195 1417.07 366.444V353.104H1411.45ZM1439.93 363.254C1439.93 358.807 1440.83 355.347 1442.65 352.872C1444.51 350.359 1447.2 349.102 1450.71 349.102C1454.23 349.102 1456.84 350.262 1458.54 352.582C1460.28 354.902 1461.15 357.995 1461.15 361.862L1460.98 364.762H1443.23C1443.43 367.662 1444.2 370.021 1445.55 371.838C1446.91 373.617 1448.76 374.506 1451.12 374.506C1453.52 374.506 1456.32 373.945 1459.53 372.824L1460.4 375.724C1457.27 376.923 1454.33 377.522 1451.58 377.522C1447.79 377.522 1444.89 376.265 1442.88 373.752C1440.91 371.2 1439.93 367.701 1439.93 363.254ZM1450.95 352.06C1446.07 352.06 1443.5 355.327 1443.23 361.862H1457.85C1457.85 355.327 1455.55 352.06 1450.95 352.06ZM1468.4 375.666L1469.16 372.65C1472.99 373.926 1475.94 374.564 1478.03 374.564C1480.12 374.564 1481.72 374.119 1482.85 373.23C1484.01 372.302 1484.59 371.084 1484.59 369.576C1484.59 368.068 1484.12 366.966 1483.19 366.27C1482.3 365.535 1480.43 364.839 1477.57 364.182C1474.71 363.525 1472.56 362.577 1471.13 361.34C1469.7 360.18 1468.98 358.44 1468.98 356.12C1468.98 353.8 1469.85 352.041 1471.59 350.842C1473.37 349.605 1475.65 348.986 1478.44 348.986C1481.22 348.986 1484.24 349.605 1487.49 350.842L1486.67 353.568C1483.39 352.485 1480.74 351.944 1478.73 351.944C1476.72 351.944 1475.13 352.292 1473.97 352.988C1472.81 353.761 1472.23 354.805 1472.23 356.12C1472.23 357.435 1472.73 358.459 1473.74 359.194C1474.78 359.929 1476.78 360.663 1479.71 361.398C1482.65 362.133 1484.74 363.08 1485.98 364.24C1487.22 365.361 1487.83 367.14 1487.83 369.576C1487.83 372.012 1487 373.945 1485.34 375.376C1483.72 376.807 1481.4 377.522 1478.38 377.522C1475.36 377.522 1472.04 376.903 1468.4 375.666Z" fill="black"/>
</svg>
