<svg width="1437" height="384" viewBox="0 0 1437 384" fill="none" xmlns="http://www.w3.org/2000/svg">
<path d="M182 5.7735C188.188 2.20084 195.812 2.20085 202 5.7735L339.617 85.2265C345.805 88.7991 349.617 95.4017 349.617 102.547V261.453C349.617 268.598 345.805 275.201 339.617 278.774L202 358.226C195.812 361.799 188.188 361.799 182 358.226L44.3834 278.773C38.1953 275.201 34.3834 268.598 34.3834 261.453V102.547C34.3834 95.4017 38.1954 88.7992 44.3834 85.2265L182 5.7735Z" fill="#FFFF00"/>
<path d="M182 25.7735C188.188 22.2008 195.812 22.2008 202 25.7735L339.617 105.226C345.805 108.799 349.617 115.402 349.617 122.547V281.453C349.617 288.598 345.805 295.201 339.617 298.774L202 378.226C195.812 381.799 188.188 381.799 182 378.226L44.3834 298.773C38.1953 295.201 34.3834 288.598 34.3834 281.453V122.547C34.3834 115.402 38.1954 108.799 44.3834 105.226L182 25.7735Z" fill="#FFFF00"/>
<path d="M192 15.7735C198.188 12.2008 205.812 12.2008 212 15.7735L349.617 95.2265C355.805 98.7991 359.617 105.402 359.617 112.547V271.453C359.617 278.598 355.805 285.201 349.617 288.774L212 368.226C205.812 371.799 198.188 371.799 192 368.226L54.3834 288.773C48.1953 285.201 44.3834 278.598 44.3834 271.453V112.547C44.3834 105.402 48.1954 98.7992 54.3834 95.2265L192 15.7735Z" fill="#00FFFF"/>
<path d="M172 15.7735C178.188 12.2008 185.812 12.2008 192 15.7735L329.617 95.2265C335.805 98.7991 339.617 105.402 339.617 112.547V271.453C339.617 278.598 335.805 285.201 329.617 288.774L192 368.226C185.812 371.799 178.188 371.799 172 368.226L34.3834 288.773C28.1953 285.201 24.3834 278.598 24.3834 271.453V112.547C24.3834 105.402 28.1954 98.7992 34.3834 95.2265L172 15.7735Z" fill="#FF00FF"/>
<path d="M182 15.7735C188.188 12.2008 195.812 12.2008 202 15.7735L339.617 95.2265C345.805 98.7991 349.617 105.402 349.617 112.547V271.453C349.617 278.598 345.805 285.201 339.617 288.774L202 368.226C195.812 371.799 188.188 371.799 182 368.226L44.3834 288.773C38.1953 285.201 34.3834 278.598 34.3834 271.453V112.547C34.3834 105.402 38.1954 98.7992 44.3834 95.2265L182 15.7735Z" fill="#333333"/>
<path d="M454.993 223H408.587V92.0909H455.377C468.544 92.0909 479.879 94.7116 489.382 99.9531C498.885 105.152 506.193 112.631 511.307 122.389C516.463 132.148 519.041 143.824 519.041 157.418C519.041 171.054 516.463 182.773 511.307 192.574C506.193 202.375 498.843 209.896 489.254 215.138C479.709 220.379 468.289 223 454.993 223ZM436.264 199.286H453.843C462.024 199.286 468.906 197.837 474.489 194.939C480.114 191.999 484.333 187.46 487.145 181.324C490 175.145 491.428 167.176 491.428 157.418C491.428 147.744 490 139.839 487.145 133.703C484.333 127.567 480.135 123.05 474.553 120.152C468.97 117.254 462.088 115.805 453.906 115.805H436.264V199.286ZM583.777 224.918C573.677 224.918 564.984 222.872 557.697 218.781C550.453 214.648 544.871 208.81 540.95 201.267C537.03 193.682 535.069 184.712 535.069 174.357C535.069 164.257 537.03 155.393 540.95 147.766C544.871 140.138 550.389 134.193 557.506 129.932C564.665 125.67 573.059 123.54 582.69 123.54C589.167 123.54 595.197 124.584 600.78 126.672C606.405 128.717 611.305 131.807 615.481 135.94C619.7 140.074 622.981 145.273 625.325 151.537C627.669 157.759 628.841 165.045 628.841 173.398V180.876H545.936V164.001H603.209C603.209 160.081 602.356 156.608 600.652 153.582C598.947 150.557 596.582 148.192 593.557 146.487C590.574 144.74 587.101 143.866 583.138 143.866C579.004 143.866 575.339 144.825 572.143 146.743C568.99 148.618 566.518 151.153 564.729 154.349C562.939 157.503 562.023 161.018 561.98 164.896V180.94C561.98 185.798 562.875 189.996 564.665 193.533C566.497 197.07 569.075 199.797 572.399 201.714C575.723 203.632 579.665 204.591 584.224 204.591C587.25 204.591 590.02 204.165 592.534 203.312C595.048 202.46 597.2 201.182 598.99 199.477C600.78 197.773 602.143 195.685 603.081 193.213L628.265 194.875C626.987 200.926 624.366 206.21 620.403 210.727C616.483 215.202 611.412 218.696 605.19 221.21C599.011 223.682 591.873 224.918 583.777 224.918ZM646.611 259.818V124.818H673.457V141.31H674.672C675.865 138.668 677.591 135.983 679.849 133.256C682.15 130.486 685.133 128.185 688.798 126.352C692.506 124.477 697.108 123.54 702.605 123.54C709.764 123.54 716.369 125.415 722.42 129.165C728.471 132.872 733.308 138.476 736.93 145.976C740.552 153.433 742.363 162.787 742.363 174.037C742.363 184.989 740.595 194.236 737.058 201.778C733.564 209.278 728.791 214.967 722.74 218.845C716.731 222.68 709.998 224.598 702.541 224.598C697.257 224.598 692.761 223.724 689.054 221.977C685.389 220.23 682.385 218.036 680.041 215.393C677.697 212.709 675.907 210.003 674.672 207.276H673.841V259.818H646.611ZM673.265 173.909C673.265 179.747 674.075 184.839 675.694 189.186C677.314 193.533 679.657 196.92 682.726 199.349C685.794 201.736 689.523 202.929 693.912 202.929C698.344 202.929 702.094 201.714 705.162 199.286C708.23 196.814 710.552 193.405 712.129 189.058C713.748 184.669 714.558 179.619 714.558 173.909C714.558 168.241 713.77 163.256 712.193 158.952C710.616 154.648 708.294 151.281 705.226 148.852C702.157 146.423 698.386 145.209 693.912 145.209C689.48 145.209 685.73 146.381 682.662 148.724C679.636 151.068 677.314 154.392 675.694 158.696C674.075 163 673.265 168.071 673.265 173.909ZM787.747 92.0909V223H760.517V92.0909H787.747ZM853.921 224.918C843.992 224.918 835.405 222.808 828.161 218.589C820.959 214.328 815.398 208.405 811.477 200.82C807.557 193.192 805.597 184.349 805.597 174.293C805.597 164.151 807.557 155.287 811.477 147.702C815.398 140.074 820.959 134.151 828.161 129.932C835.405 125.67 843.992 123.54 853.921 123.54C863.85 123.54 872.415 125.67 879.617 129.932C886.861 134.151 892.443 140.074 896.364 147.702C900.284 155.287 902.245 164.151 902.245 174.293C902.245 184.349 900.284 193.192 896.364 200.82C892.443 208.405 886.861 214.328 879.617 218.589C872.415 222.808 863.85 224.918 853.921 224.918ZM854.048 203.824C858.566 203.824 862.337 202.545 865.362 199.989C868.388 197.389 870.668 193.852 872.202 189.378C873.779 184.903 874.567 179.811 874.567 174.101C874.567 168.391 873.779 163.298 872.202 158.824C870.668 154.349 868.388 150.812 865.362 148.213C862.337 145.614 858.566 144.314 854.048 144.314C849.489 144.314 845.654 145.614 842.543 148.213C839.475 150.812 837.152 154.349 835.575 158.824C834.041 163.298 833.274 168.391 833.274 174.101C833.274 179.811 834.041 184.903 835.575 189.378C837.152 193.852 839.475 197.389 842.543 199.989C845.654 202.545 849.489 203.824 854.048 203.824ZM933.597 259.818C930.146 259.818 926.907 259.541 923.882 258.987C920.899 258.476 918.427 257.815 916.467 257.006L922.603 236.679C925.799 237.659 928.676 238.192 931.232 238.277C933.832 238.362 936.069 237.766 937.944 236.487C939.862 235.209 941.417 233.036 942.61 229.967L944.208 225.812L908.988 124.818H937.624L957.951 196.92H958.974L979.492 124.818H1008.32L970.16 233.611C968.328 238.895 965.835 243.497 962.681 247.418C959.57 251.381 955.629 254.428 950.856 256.558C946.083 258.732 940.33 259.818 933.597 259.818ZM1138.27 137.922H1110.27C1109.76 134.3 1108.72 131.082 1107.14 128.27C1105.56 125.415 1103.54 122.986 1101.07 120.983C1098.6 118.98 1095.74 117.446 1092.5 116.381C1089.31 115.315 1085.83 114.783 1082.08 114.783C1075.31 114.783 1069.41 116.466 1064.38 119.832C1059.35 123.156 1055.45 128.014 1052.68 134.406C1049.91 140.756 1048.53 148.469 1048.53 157.545C1048.53 166.878 1049.91 174.719 1052.68 181.068C1055.49 187.418 1059.41 192.212 1064.44 195.45C1069.47 198.689 1075.29 200.308 1081.89 200.308C1085.6 200.308 1089.03 199.818 1092.18 198.838C1095.38 197.858 1098.21 196.43 1100.69 194.555C1103.16 192.638 1105.2 190.315 1106.82 187.588C1108.48 184.861 1109.63 181.75 1110.27 178.256L1138.27 178.384C1137.55 184.392 1135.74 190.188 1132.84 195.77C1129.98 201.31 1126.13 206.274 1121.27 210.663C1116.45 215.01 1110.7 218.462 1104.01 221.018C1097.36 223.533 1089.84 224.79 1081.45 224.79C1069.77 224.79 1059.33 222.148 1050.12 216.864C1040.96 211.58 1033.72 203.93 1028.39 193.916C1023.11 183.902 1020.47 171.778 1020.47 157.545C1020.47 143.27 1023.15 131.125 1028.52 121.111C1033.89 111.097 1041.18 103.469 1050.38 98.2273C1059.58 92.9432 1069.94 90.3011 1081.45 90.3011C1089.03 90.3011 1096.06 91.3665 1102.54 93.4972C1109.06 95.6278 1114.83 98.7386 1119.86 102.83C1124.89 106.878 1128.98 111.842 1132.13 117.723C1135.33 123.604 1137.38 130.337 1138.27 137.922ZM1201.97 224.918C1192.04 224.918 1183.45 222.808 1176.21 218.589C1169.01 214.328 1163.44 208.405 1159.52 200.82C1155.6 193.192 1153.64 184.349 1153.64 174.293C1153.64 164.151 1155.6 155.287 1159.52 147.702C1163.44 140.074 1169.01 134.151 1176.21 129.932C1183.45 125.67 1192.04 123.54 1201.97 123.54C1211.9 123.54 1220.46 125.67 1227.66 129.932C1234.91 134.151 1240.49 140.074 1244.41 147.702C1248.33 155.287 1250.29 164.151 1250.29 174.293C1250.29 184.349 1248.33 193.192 1244.41 200.82C1240.49 208.405 1234.91 214.328 1227.66 218.589C1220.46 222.808 1211.9 224.918 1201.97 224.918ZM1202.1 203.824C1206.61 203.824 1210.38 202.545 1213.41 199.989C1216.43 197.389 1218.71 193.852 1220.25 189.378C1221.83 184.903 1222.61 179.811 1222.61 174.101C1222.61 168.391 1221.83 163.298 1220.25 158.824C1218.71 154.349 1216.43 150.812 1213.41 148.213C1210.38 145.614 1206.61 144.314 1202.1 144.314C1197.54 144.314 1193.7 145.614 1190.59 148.213C1187.52 150.812 1185.2 154.349 1183.62 158.824C1182.09 163.298 1181.32 168.391 1181.32 174.101C1181.32 179.811 1182.09 184.903 1183.62 189.378C1185.2 193.852 1187.52 197.389 1190.59 199.989C1193.7 202.545 1197.54 203.824 1202.1 203.824ZM1268 223V124.818H1294.4V141.949H1295.42C1297.21 135.855 1300.21 131.253 1304.43 128.142C1308.65 124.989 1313.51 123.412 1319.01 123.412C1320.37 123.412 1321.84 123.497 1323.42 123.668C1324.99 123.838 1326.38 124.072 1327.57 124.371V148.533C1326.29 148.149 1324.52 147.808 1322.27 147.51C1320.01 147.212 1317.94 147.062 1316.07 147.062C1312.06 147.062 1308.48 147.936 1305.33 149.683C1302.22 151.388 1299.74 153.774 1297.91 156.842C1296.12 159.911 1295.23 163.447 1295.23 167.453V223H1268ZM1381.82 224.918C1371.72 224.918 1363.03 222.872 1355.74 218.781C1348.5 214.648 1342.92 208.81 1339 201.267C1335.08 193.682 1333.12 184.712 1333.12 174.357C1333.12 164.257 1335.08 155.393 1339 147.766C1342.92 140.138 1348.44 134.193 1355.55 129.932C1362.71 125.67 1371.11 123.54 1380.74 123.54C1387.21 123.54 1393.24 124.584 1398.83 126.672C1404.45 128.717 1409.35 131.807 1413.53 135.94C1417.75 140.074 1421.03 145.273 1423.37 151.537C1425.72 157.759 1426.89 165.045 1426.89 173.398V180.876H1343.98V164.001H1401.26C1401.26 160.081 1400.4 156.608 1398.7 153.582C1396.99 150.557 1394.63 148.192 1391.6 146.487C1388.62 144.74 1385.15 143.866 1381.18 143.866C1377.05 143.866 1373.39 144.825 1370.19 146.743C1367.04 148.618 1364.57 151.153 1362.78 154.349C1360.99 157.503 1360.07 161.018 1360.03 164.896V180.94C1360.03 185.798 1360.92 189.996 1362.71 193.533C1364.54 197.07 1367.12 199.797 1370.45 201.714C1373.77 203.632 1377.71 204.591 1382.27 204.591C1385.3 204.591 1388.07 204.165 1390.58 203.312C1393.09 202.46 1395.25 201.182 1397.04 199.477C1398.83 197.773 1400.19 195.685 1401.13 193.213L1426.31 194.875C1425.03 200.926 1422.41 206.21 1418.45 210.727C1414.53 215.202 1409.46 218.696 1403.24 221.21C1397.06 223.682 1389.92 224.918 1381.82 224.918Z" fill="#EEEEEE"/>
<path d="M450.716 323L459.74 291.56H464.348L473.036 323H470.204L468.236 315.752H455.516L453.5 323H450.716ZM467.612 313.352L462.428 293.96H461.612L456.188 313.352H467.612ZM517.292 323V291.56H519.932V306.152H533.468V291.56H536.108V323H533.468V308.6H519.932V323H517.292ZM546.668 311.48H542.252V323H539.612V291.56H546.668C550.508 291.56 553.34 292.296 555.164 293.768C557.02 295.208 557.948 297.72 557.948 301.304C557.948 304.888 557.02 307.48 555.164 309.08C553.308 310.68 550.476 311.48 546.668 311.48ZM546.668 293.96H542.252V309.08H546.668C549.612 309.08 551.756 308.488 553.1 307.304C554.476 306.12 555.164 304.136 555.164 301.352C555.164 298.568 554.492 296.648 553.148 295.592C551.804 294.504 549.644 293.96 546.668 293.96ZM599.948 319.736L600.572 322.184C597.756 323.016 595.228 323.432 592.988 323.432C589.308 323.432 586.572 322.168 584.78 319.64C583.02 317.08 582.14 312.968 582.14 307.304C582.14 301.64 583.004 297.528 584.732 294.968C586.46 292.376 589.228 291.08 593.036 291.08C595.372 291.08 597.804 291.576 600.332 292.568L599.564 294.968C597.26 294.008 595.084 293.528 593.036 293.528C590.188 293.528 588.124 294.616 586.844 296.792C585.596 298.936 584.972 302.408 584.972 307.208C584.972 312.008 585.644 315.496 586.988 317.672C588.332 319.848 590.348 320.936 593.036 320.936C594.828 320.936 597.132 320.536 599.948 319.736ZM621.212 320.552V323H605.468V291.56H608.108V320.552H621.212ZM628.028 323V320.6H633.452V293.96H628.028V291.56H641.42V293.96H636.092V320.6H641.42V323H628.028ZM669.212 323V320.6H674.54V302.6H669.404V300.2H674.54C674.54 293.864 676.892 290.696 681.596 290.696C683.132 290.696 685.148 291.064 687.644 291.8L687.068 294.2C684.604 293.496 682.812 293.144 681.692 293.144C680.06 293.144 678.876 293.72 678.14 294.872C677.436 295.992 677.084 297.768 677.084 300.2H686.732V302.6H677.084V320.6H686.828V323H669.212ZM690.332 311.672C690.332 303.832 693.388 299.912 699.5 299.912C705.612 299.912 708.668 303.832 708.668 311.672C708.668 319.512 705.612 323.432 699.5 323.432C693.388 323.432 690.332 319.512 690.332 311.672ZM699.5 302.408C695.212 302.408 693.068 305.496 693.068 311.672C693.068 317.848 695.212 320.936 699.5 320.936C703.788 320.936 705.932 317.848 705.932 311.672C705.932 305.496 703.788 302.408 699.5 302.408ZM712.988 323V320.6H718.46V302.6H712.988V300.2H721.004L721.1 302.984C722.124 302.344 723.564 301.704 725.42 301.064C727.276 300.424 728.908 300.04 730.316 299.912H730.844V302.744H730.316C729.004 302.84 727.372 303.16 725.42 303.704C723.5 304.248 722.06 304.808 721.1 305.384V320.6H728.78V323H712.988ZM755.996 332.216V304.328L755.564 300.152L757.964 299.864L758.396 302.456C760.732 300.76 762.956 299.912 765.068 299.912C767.916 299.912 770.124 300.952 771.692 303.032C773.26 305.112 774.044 307.976 774.044 311.624C774.044 315.272 773.18 318.152 771.452 320.264C769.724 322.376 767.324 323.432 764.252 323.432C762.46 323.432 760.556 323 758.54 322.136V332.216H755.996ZM771.308 311.72C771.308 308.872 770.764 306.616 769.676 304.952C768.588 303.256 767.02 302.408 764.972 302.408C762.956 302.408 760.812 303.32 758.54 305.144V319.544C759.212 319.864 760.124 320.184 761.276 320.504C762.46 320.792 763.42 320.936 764.156 320.936C766.428 320.936 768.188 320.104 769.436 318.44C770.684 316.776 771.308 314.536 771.308 311.72ZM777.788 323V320.6H783.26V302.6H777.788V300.2H785.804L785.9 302.984C786.924 302.344 788.364 301.704 790.22 301.064C792.076 300.424 793.708 300.04 795.116 299.912H795.644V302.744H795.116C793.804 302.84 792.172 303.16 790.22 303.704C788.3 304.248 786.86 304.808 785.9 305.384V320.6H793.58V323H777.788ZM798.332 311.672C798.332 303.832 801.388 299.912 807.5 299.912C813.612 299.912 816.668 303.832 816.668 311.672C816.668 319.512 813.612 323.432 807.5 323.432C801.388 323.432 798.332 319.512 798.332 311.672ZM807.5 302.408C803.212 302.408 801.068 305.496 801.068 311.672C801.068 317.848 803.212 320.936 807.5 320.936C811.788 320.936 813.932 317.848 813.932 311.672C813.932 305.496 811.788 302.408 807.5 302.408ZM837.644 291.128V319.016L838.124 323.192L835.676 323.48L835.196 320.936C832.796 322.6 830.588 323.432 828.572 323.432C825.724 323.432 823.5 322.376 821.9 320.264C820.332 318.152 819.548 315.288 819.548 311.672C819.548 308.024 820.428 305.16 822.188 303.08C823.948 300.968 826.348 299.912 829.388 299.912C831.18 299.912 833.084 300.344 835.1 301.208V291.128H837.644ZM822.284 311.576C822.284 314.392 822.828 316.664 823.916 318.392C825.036 320.088 826.636 320.936 828.716 320.936C830.796 320.936 832.924 320.024 835.1 318.2V303.8C834.428 303.48 833.5 303.176 832.316 302.888C831.164 302.568 830.22 302.408 829.484 302.408C827.212 302.408 825.436 303.24 824.156 304.904C822.908 306.536 822.284 308.76 822.284 311.576ZM856.652 323L856.556 321.032C853.484 322.632 850.924 323.432 848.876 323.432C846.828 323.432 845.212 322.728 844.028 321.32C842.844 319.912 842.252 317.992 842.252 315.56V300.2H844.796V315.56C844.796 317.128 845.164 318.424 845.9 319.448C846.668 320.44 847.82 320.936 849.356 320.936C850.892 320.936 853.292 320.136 856.556 318.536V300.2H859.1V323H856.652ZM879.884 300.968L879.308 303.464C877.324 302.76 875.484 302.408 873.788 302.408C871.484 302.408 869.756 303.224 868.604 304.856C867.484 306.456 866.924 308.696 866.924 311.576C866.924 314.456 867.5 316.744 868.652 318.44C869.804 320.104 871.516 320.936 873.788 320.936C875.324 320.936 877.244 320.52 879.548 319.688L880.316 322.088C877.98 322.984 875.82 323.432 873.836 323.432C870.7 323.432 868.3 322.392 866.636 320.312C864.972 318.2 864.14 315.272 864.14 311.528C864.14 307.784 864.956 304.92 866.588 302.936C868.22 300.92 870.62 299.912 873.788 299.912C875.804 299.912 877.836 300.264 879.884 300.968ZM884.588 303.224V300.824H889.244V295.016L891.788 294.536V300.824H902.78V303.224H891.788V314.168C891.788 316.6 892.14 318.36 892.844 319.448C893.58 320.504 894.876 321.032 896.732 321.032C897.436 321.032 898.524 320.92 899.996 320.696C901.468 320.44 902.476 320.216 903.02 320.024L903.596 322.376C902.988 322.6 901.868 322.84 900.236 323.096C898.636 323.352 897.468 323.48 896.732 323.48C893.852 323.48 891.884 322.728 890.828 321.224C889.772 319.688 889.244 317.368 889.244 314.264V303.224H884.588ZM907.484 323V320.6H914.492V302.6H907.484V300.2H917.036V320.6H924.044V323H907.484ZM913.484 293.432C913.484 292.792 913.66 292.296 914.012 291.944C914.396 291.592 914.908 291.416 915.548 291.416C916.86 291.416 917.516 292.12 917.516 293.528C917.516 294.936 916.86 295.624 915.548 295.592C914.172 295.592 913.484 294.872 913.484 293.432ZM927.932 311.672C927.932 303.832 930.988 299.912 937.1 299.912C943.212 299.912 946.268 303.832 946.268 311.672C946.268 319.512 943.212 323.432 937.1 323.432C930.988 323.432 927.932 319.512 927.932 311.672ZM937.1 302.408C932.812 302.408 930.668 305.496 930.668 311.672C930.668 317.848 932.812 320.936 937.1 320.936C941.388 320.936 943.532 317.848 943.532 311.672C943.532 305.496 941.388 302.408 937.1 302.408ZM952.796 300.2L952.892 302.12C955.996 300.648 958.572 299.912 960.62 299.912C962.668 299.912 964.268 300.616 965.42 302.024C966.604 303.432 967.196 305.352 967.196 307.784V323H964.652V307.784C964.652 306.216 964.268 304.92 963.5 303.896C962.732 302.904 961.58 302.408 960.044 302.408C958.508 302.408 956.124 303.112 952.892 304.52V323H950.348V300.2H952.796ZM973.58 312.776V310.184H987.356V312.776H973.58ZM993.788 323V320.6H999.26V302.6H993.788V300.2H1001.8L1001.9 302.984C1002.92 302.344 1004.36 301.704 1006.22 301.064C1008.08 300.424 1009.71 300.04 1011.12 299.912H1011.64V302.744H1011.12C1009.8 302.84 1008.17 303.16 1006.22 303.704C1004.3 304.248 1002.86 304.808 1001.9 305.384V320.6H1009.58V323H993.788ZM1014.72 311.624C1014.72 307.944 1015.47 305.08 1016.97 303.032C1018.51 300.952 1020.73 299.912 1023.64 299.912C1026.56 299.912 1028.72 300.872 1030.12 302.792C1031.56 304.712 1032.28 307.272 1032.28 310.472L1032.14 312.872H1017.45C1017.61 315.272 1018.25 317.224 1019.37 318.728C1020.49 320.2 1022.03 320.936 1023.98 320.936C1025.96 320.936 1028.28 320.472 1030.94 319.544L1031.66 321.944C1029.07 322.936 1026.64 323.432 1024.36 323.432C1021.23 323.432 1018.83 322.392 1017.16 320.312C1015.53 318.2 1014.72 315.304 1014.72 311.624ZM1023.84 302.36C1019.8 302.36 1017.68 305.064 1017.45 310.472H1029.55C1029.55 305.064 1027.64 302.36 1023.84 302.36ZM1043.56 320.936C1044.75 320.936 1046.03 320.568 1047.4 319.832C1048.81 319.064 1049.84 318.36 1050.48 317.72V312.008C1048.36 311.848 1046.35 311.768 1044.43 311.768C1042.51 311.768 1041.07 312.184 1040.11 313.016C1039.15 313.816 1038.67 314.904 1038.67 316.28C1038.67 319.384 1040.3 320.936 1043.56 320.936ZM1043.52 323.432C1041.18 323.432 1039.34 322.84 1038 321.656C1036.65 320.44 1035.98 318.728 1035.98 316.52C1035.98 314.312 1036.72 312.6 1038.19 311.384C1039.66 310.136 1041.61 309.512 1044.04 309.512C1046.48 309.512 1048.62 309.608 1050.48 309.8C1050.48 306.952 1050.12 305.016 1049.42 303.992C1048.72 302.936 1047.29 302.408 1045.15 302.408C1043 302.408 1040.48 302.92 1037.56 303.944L1036.84 301.544C1039.82 300.456 1042.51 299.912 1044.91 299.912C1048.08 299.912 1050.22 300.616 1051.34 302.024C1052.46 303.432 1053.02 305.896 1053.02 309.416V319.496L1053.4 323.144L1050.96 323.384L1050.48 320.504C1049.74 321.144 1048.7 321.8 1047.36 322.472C1046.01 323.112 1044.73 323.432 1043.52 323.432ZM1075.24 291.128V319.016L1075.72 323.192L1073.28 323.48L1072.8 320.936C1070.4 322.6 1068.19 323.432 1066.17 323.432C1063.32 323.432 1061.1 322.376 1059.5 320.264C1057.93 318.152 1057.15 315.288 1057.15 311.672C1057.15 308.024 1058.03 305.16 1059.79 303.08C1061.55 300.968 1063.95 299.912 1066.99 299.912C1068.78 299.912 1070.68 300.344 1072.7 301.208V291.128H1075.24ZM1059.88 311.576C1059.88 314.392 1060.43 316.664 1061.52 318.392C1062.64 320.088 1064.24 320.936 1066.32 320.936C1068.4 320.936 1070.52 320.024 1072.7 318.2V303.8C1072.03 303.48 1071.1 303.176 1069.92 302.888C1068.76 302.568 1067.82 302.408 1067.08 302.408C1064.81 302.408 1063.04 303.24 1061.76 304.904C1060.51 306.536 1059.88 308.76 1059.88 311.576ZM1078.94 300.2H1081.82L1088.59 319.592H1088.97L1095.02 300.2H1097.9L1089.07 326.888C1088.24 329.416 1087.36 331.032 1086.43 331.736C1085.53 332.44 1083.69 332.824 1080.91 332.888V330.44C1082.7 330.408 1083.9 330.152 1084.51 329.672C1085.12 329.192 1085.68 328.184 1086.19 326.648L1087.29 323.336L1078.94 300.2ZM1123.24 321.896L1123.87 319.4C1127.04 320.456 1129.48 320.984 1131.21 320.984C1132.94 320.984 1134.27 320.616 1135.2 319.88C1136.16 319.112 1136.64 318.104 1136.64 316.856C1136.64 315.608 1136.25 314.696 1135.48 314.12C1134.75 313.512 1133.2 312.936 1130.83 312.392C1128.46 311.848 1126.68 311.064 1125.5 310.04C1124.32 309.08 1123.72 307.64 1123.72 305.72C1123.72 303.8 1124.44 302.344 1125.88 301.352C1127.36 300.328 1129.24 299.816 1131.55 299.816C1133.85 299.816 1136.35 300.328 1139.04 301.352L1138.36 303.608C1135.64 302.712 1133.45 302.264 1131.79 302.264C1130.12 302.264 1128.81 302.552 1127.85 303.128C1126.89 303.768 1126.41 304.632 1126.41 305.72C1126.41 306.808 1126.83 307.656 1127.66 308.264C1128.52 308.872 1130.17 309.48 1132.6 310.088C1135.04 310.696 1136.76 311.48 1137.79 312.44C1138.81 313.368 1139.32 314.84 1139.32 316.856C1139.32 318.872 1138.64 320.472 1137.26 321.656C1135.92 322.84 1134 323.432 1131.5 323.432C1129 323.432 1126.25 322.92 1123.24 321.896ZM1144.32 311.624C1144.32 307.944 1145.07 305.08 1146.57 303.032C1148.11 300.952 1150.33 299.912 1153.24 299.912C1156.16 299.912 1158.32 300.872 1159.72 302.792C1161.16 304.712 1161.88 307.272 1161.88 310.472L1161.74 312.872H1147.05C1147.21 315.272 1147.85 317.224 1148.97 318.728C1150.09 320.2 1151.63 320.936 1153.58 320.936C1155.56 320.936 1157.88 320.472 1160.54 319.544L1161.26 321.944C1158.67 322.936 1156.24 323.432 1153.96 323.432C1150.83 323.432 1148.43 322.392 1146.76 320.312C1145.13 318.2 1144.32 315.304 1144.32 311.624ZM1153.44 302.36C1149.4 302.36 1147.28 305.064 1147.05 310.472H1159.15C1159.15 305.064 1157.24 302.36 1153.44 302.36ZM1166.59 323V320.6H1172.06V302.6H1166.59V300.2H1174.6L1174.7 302.984C1175.72 302.344 1177.16 301.704 1179.02 301.064C1180.88 300.424 1182.51 300.04 1183.92 299.912H1184.44V302.744H1183.92C1182.6 302.84 1180.97 303.16 1179.02 303.704C1177.1 304.248 1175.66 304.808 1174.7 305.384V320.6H1182.38V323H1166.59ZM1186.84 300.2H1189.72L1196.01 320.696H1196.88L1202.92 300.2H1205.8L1198.84 323H1194.04L1186.84 300.2ZM1209.12 311.624C1209.12 307.944 1209.87 305.08 1211.37 303.032C1212.91 300.952 1215.13 299.912 1218.04 299.912C1220.96 299.912 1223.12 300.872 1224.52 302.792C1225.96 304.712 1226.68 307.272 1226.68 310.472L1226.54 312.872H1211.85C1212.01 315.272 1212.65 317.224 1213.77 318.728C1214.89 320.2 1216.43 320.936 1218.38 320.936C1220.36 320.936 1222.68 320.472 1225.34 319.544L1226.06 321.944C1223.47 322.936 1221.04 323.432 1218.76 323.432C1215.63 323.432 1213.23 322.392 1211.56 320.312C1209.93 318.2 1209.12 315.304 1209.12 311.624ZM1218.24 302.36C1214.2 302.36 1212.08 305.064 1211.85 310.472H1223.95C1223.95 305.064 1222.04 302.36 1218.24 302.36ZM1231.39 323V320.6H1236.86V302.6H1231.39V300.2H1239.4L1239.5 302.984C1240.52 302.344 1241.96 301.704 1243.82 301.064C1245.68 300.424 1247.31 300.04 1248.72 299.912H1249.24V302.744H1248.72C1247.4 302.84 1245.77 303.16 1243.82 303.704C1241.9 304.248 1240.46 304.808 1239.5 305.384V320.6H1247.18V323H1231.39ZM1274.44 321.896L1275.07 319.4C1278.24 320.456 1280.68 320.984 1282.41 320.984C1284.14 320.984 1285.47 320.616 1286.4 319.88C1287.36 319.112 1287.84 318.104 1287.84 316.856C1287.84 315.608 1287.45 314.696 1286.68 314.12C1285.95 313.512 1284.4 312.936 1282.03 312.392C1279.66 311.848 1277.88 311.064 1276.7 310.04C1275.52 309.08 1274.92 307.64 1274.92 305.72C1274.92 303.8 1275.64 302.344 1277.08 301.352C1278.56 300.328 1280.44 299.816 1282.75 299.816C1285.05 299.816 1287.55 300.328 1290.24 301.352L1289.56 303.608C1286.84 302.712 1284.65 302.264 1282.99 302.264C1281.32 302.264 1280.01 302.552 1279.05 303.128C1278.09 303.768 1277.61 304.632 1277.61 305.72C1277.61 306.808 1278.03 307.656 1278.86 308.264C1279.72 308.872 1281.37 309.48 1283.8 310.088C1286.24 310.696 1287.96 311.48 1288.99 312.44C1290.01 313.368 1290.52 314.84 1290.52 316.856C1290.52 318.872 1289.84 320.472 1288.46 321.656C1287.12 322.84 1285.2 323.432 1282.7 323.432C1280.2 323.432 1277.45 322.92 1274.44 321.896ZM1295.52 311.624C1295.52 307.944 1296.27 305.08 1297.77 303.032C1299.31 300.952 1301.53 299.912 1304.44 299.912C1307.36 299.912 1309.52 300.872 1310.92 302.792C1312.36 304.712 1313.08 307.272 1313.08 310.472L1312.94 312.872H1298.25C1298.41 315.272 1299.05 317.224 1300.17 318.728C1301.29 320.2 1302.83 320.936 1304.78 320.936C1306.76 320.936 1309.08 320.472 1311.74 319.544L1312.46 321.944C1309.87 322.936 1307.44 323.432 1305.16 323.432C1302.03 323.432 1299.63 322.392 1297.96 320.312C1296.33 318.2 1295.52 315.304 1295.52 311.624ZM1304.64 302.36C1300.6 302.36 1298.48 305.064 1298.25 310.472H1310.35C1310.35 305.064 1308.44 302.36 1304.64 302.36ZM1316.59 303.224V300.824H1321.24V295.016L1323.79 294.536V300.824H1334.78V303.224H1323.79V314.168C1323.79 316.6 1324.14 318.36 1324.84 319.448C1325.58 320.504 1326.88 321.032 1328.73 321.032C1329.44 321.032 1330.52 320.92 1332 320.696C1333.47 320.44 1334.48 320.216 1335.02 320.024L1335.6 322.376C1334.99 322.6 1333.87 322.84 1332.24 323.096C1330.64 323.352 1329.47 323.48 1328.73 323.48C1325.85 323.48 1323.88 322.728 1322.83 321.224C1321.77 319.688 1321.24 317.368 1321.24 314.264V303.224H1316.59ZM1353.45 323L1353.36 321.032C1350.28 322.632 1347.72 323.432 1345.68 323.432C1343.63 323.432 1342.01 322.728 1340.83 321.32C1339.64 319.912 1339.05 317.992 1339.05 315.56V300.2H1341.6V315.56C1341.6 317.128 1341.96 318.424 1342.7 319.448C1343.47 320.44 1344.62 320.936 1346.16 320.936C1347.69 320.936 1350.09 320.136 1353.36 318.536V300.2H1355.9V323H1353.45ZM1360.8 332.216V304.328L1360.36 300.152L1362.76 299.864L1363.2 302.456C1365.53 300.76 1367.76 299.912 1369.87 299.912C1372.72 299.912 1374.92 300.952 1376.49 303.032C1378.06 305.112 1378.84 307.976 1378.84 311.624C1378.84 315.272 1377.98 318.152 1376.25 320.264C1374.52 322.376 1372.12 323.432 1369.05 323.432C1367.26 323.432 1365.36 323 1363.34 322.136V332.216H1360.8ZM1376.11 311.72C1376.11 308.872 1375.56 306.616 1374.48 304.952C1373.39 303.256 1371.82 302.408 1369.77 302.408C1367.76 302.408 1365.61 303.32 1363.34 305.144V319.544C1364.01 319.864 1364.92 320.184 1366.08 320.504C1367.26 320.792 1368.22 320.936 1368.96 320.936C1371.23 320.936 1372.99 320.104 1374.24 318.44C1375.48 316.776 1376.11 314.536 1376.11 311.72Z" fill="white"/>
<path d="M503.468 311.48H499.052V323H496.412V291.56H503.468C507.308 291.56 510.14 292.296 511.964 293.768C513.82 295.208 514.748 297.72 514.748 301.304C514.748 304.888 513.82 307.48 511.964 309.08C510.108 310.68 507.276 311.48 503.468 311.48ZM503.468 293.96H499.052V309.08H503.468C506.412 309.08 508.556 308.488 509.9 307.304C511.276 306.12 511.964 304.136 511.964 301.352C511.964 298.568 511.292 296.648 509.948 295.592C508.604 294.504 506.444 293.96 503.468 293.96Z" fill="white"/>
</svg>
