<svg width="1331" height="480" viewBox="0 0 1331 480" fill="none" xmlns="http://www.w3.org/2000/svg">
<rect x="80" y="23" width="23" height="23" fill="#FFFF00"/>
<rect x="126" y="23" width="23" height="23" fill="#FFFF00"/>
<rect x="103" width="23" height="23" fill="#FFFF00"/>
<rect x="103" width="23" height="23" fill="#FFFF00"/>
<rect x="103" y="23" width="23" height="23" fill="#FFFF00"/>
<rect x="103" y="46" width="23" height="23" fill="#FFFF00"/>
<rect x="103" y="69" width="23" height="23" fill="#FFFF00"/>
<rect x="57" y="46" width="23" height="23" fill="#FFFF00"/>
<rect x="149" y="46" width="23" height="23" fill="#FFFF00"/>
<rect x="103" y="92" width="23" height="23" fill="#FFFF00"/>
<rect x="57" y="69" width="23" height="23" fill="#FFFF00"/>
<rect x="149" y="69" width="23" height="23" fill="#FFFF00"/>
<rect x="149" y="92" width="23" height="23" fill="#FFFF00"/>
<rect x="149" y="115" width="23" height="23" fill="#FFFF00"/>
<rect x="149" y="138" width="23" height="23" fill="#FFFF00"/>
<rect x="149" y="161" width="23" height="23" fill="#FFFF00"/>
<rect x="149" y="184" width="23" height="23" fill="#FFFF00"/>
<rect x="149" y="207" width="23" height="23" fill="#FFFF00"/>
<rect x="149" y="230" width="23" height="23" fill="#FFFF00"/>
<rect x="172" y="237" width="23" height="23" fill="#FFFF00"/>
<rect x="34" y="238" width="23" height="23" fill="#FFFF00"/>
<rect x="195" y="260" width="23" height="23" fill="#FFFF00"/>
<rect x="11" y="261" width="23" height="23" fill="#FFFF00"/>
<rect x="11" y="284" width="23" height="23" fill="#FFFF00"/>
<rect x="11" y="307" width="23" height="23" fill="#FFFF00"/>
<rect x="103" y="299" width="23" height="23" fill="#FFFF00"/>
<rect x="103" y="276" width="23" height="23" fill="#FFFF00"/>
<rect x="34" y="284" width="23" height="23" fill="#FFFF00"/>
<rect x="195" y="283" width="23" height="23" fill="#FFFF00"/>
<rect x="172" y="283" width="23" height="23" fill="#FFFF00"/>
<rect x="195" y="306" width="23" height="23" fill="#FFFF00"/>
<rect x="149" y="253" width="23" height="23" fill="#FFFF00"/>
<rect x="57" y="46" width="23" height="23" fill="#FFFF00"/>
<rect x="149" y="276" width="23" height="23" fill="#FFFF00"/>
<rect x="80" y="46" width="23" height="23" fill="#FFFF00"/>
<rect x="149" y="299" width="23" height="23" fill="#FFFF00"/>
<rect x="126" y="46" width="23" height="23" fill="#FFFF00"/>
<rect x="57" y="92" width="23" height="23" fill="#FFFF00"/>
<rect x="57" y="69" width="23" height="23" fill="#FFFF00"/>
<rect x="57" y="92" width="23" height="23" fill="#FFFF00"/>
<rect x="80" y="69" width="23" height="23" fill="#FFFF00"/>
<rect x="80" y="92" width="23" height="23" fill="#FFFF00"/>
<rect x="126" y="69" width="23" height="23" fill="#FFFF00"/>
<rect x="126" y="92" width="23" height="23" fill="#FFFF00"/>
<rect x="57" y="115" width="23" height="23" fill="#FFFF00"/>
<rect x="80" y="115" width="23" height="23" fill="#FFFF00"/>
<rect x="103" y="115" width="23" height="23" fill="#FFFF00"/>
<rect x="126" y="115" width="23" height="23" fill="#FFFF00"/>
<rect x="57" y="138" width="23" height="23" fill="#FFFF00"/>
<rect x="57" y="161" width="23" height="23" fill="#FFFF00"/>
<rect x="57" y="184" width="23" height="23" fill="#FFFF00"/>
<rect x="57" y="207" width="23" height="23" fill="#FFFF00"/>
<rect x="57" y="230" width="23" height="23" fill="#FFFF00"/>
<rect x="57" y="253" width="23" height="23" fill="#FFFF00"/>
<rect x="103" y="138" width="23" height="23" fill="#FFFF00"/>
<rect x="103" y="161" width="23" height="23" fill="#FFFF00"/>
<rect x="103" y="184" width="23" height="23" fill="#FFFF00"/>
<rect x="103" y="207" width="23" height="23" fill="#FFFF00"/>
<rect x="103" y="230" width="23" height="23" fill="#FFFF00"/>
<rect x="103" y="253" width="23" height="23" fill="#FFFF00"/>
<rect x="80" y="299" width="23" height="23" fill="#FFFF00"/>
<rect x="80" y="276" width="23" height="23" fill="#FFFF00"/>
<rect x="80" y="138" width="23" height="23" fill="#FFFF00"/>
<rect x="80" y="161" width="23" height="23" fill="#FFFF00"/>
<rect x="80" y="184" width="23" height="23" fill="#FFFF00"/>
<rect x="80" y="207" width="23" height="23" fill="#FFFF00"/>
<rect x="80" y="230" width="23" height="23" fill="#FFFF00"/>
<rect x="80" y="253" width="23" height="23" fill="#FFFF00"/>
<rect x="126" y="299" width="23" height="23" fill="#FFFF00"/>
<rect x="126" y="276" width="23" height="23" fill="#FFFF00"/>
<rect x="126" y="138" width="23" height="23" fill="#FFFF00"/>
<rect x="126" y="161" width="23" height="23" fill="#FFFF00"/>
<rect x="126" y="184" width="23" height="23" fill="#FFFF00"/>
<rect x="126" y="207" width="23" height="23" fill="#FFFF00"/>
<rect x="126" y="230" width="23" height="23" fill="#FFFF00"/>
<rect x="126" y="253" width="23" height="23" fill="#FFFF00"/>
<rect x="34" y="261" width="23" height="23" fill="#FFFF00"/>
<rect x="172" y="260" width="23" height="23" fill="#FFFF00"/>
<rect x="57" y="276" width="23" height="23" fill="#FFFF00"/>
<rect x="57" y="299" width="23" height="23" fill="#FFFF00"/>
<rect x="126" y="322" width="23" height="23" fill="#FFFF00"/>
<rect x="103" y="322" width="23" height="23" fill="#FFFF00"/>
<rect x="80" y="322" width="23" height="23" fill="#FFFF00"/>
<rect x="57" y="345" width="23" height="23" fill="#FFFF00"/>
<rect x="57" y="368" width="23" height="23" fill="#FFFF00"/>
<rect x="80" y="345" width="23" height="23" fill="#FFFF00"/>
<rect x="80" y="368" width="23" height="23" fill="#FFFF00"/>
<rect x="126" y="345" width="23" height="23" fill="#FFFF00"/>
<rect x="126" y="368" width="23" height="23" fill="#FFFF00"/>
<rect x="80" y="391" width="23" height="23" fill="#FFFF00"/>
<rect x="80" y="414" width="23" height="23" fill="#FFFF00"/>
<rect x="103" y="414" width="23" height="23" fill="#FFFF00"/>
<rect x="103" y="437" width="23" height="23" fill="#FFFF00"/>
<rect x="103" y="391" width="23" height="23" fill="#FFFF00"/>
<rect x="103" y="368" width="23" height="23" fill="#FFFF00"/>
<rect x="103" y="345" width="23" height="23" fill="#FFFF00"/>
<rect x="126" y="391" width="23" height="23" fill="#FFFF00"/>
<rect x="126" y="414" width="23" height="23" fill="#FFFF00"/>
<rect x="149" y="368" width="23" height="23" fill="#FFFF00"/>
<rect x="149" y="345" width="23" height="23" fill="#FFFF00"/>
<rect x="80" y="43" width="23" height="23" fill="#FFFF00"/>
<rect x="126" y="43" width="23" height="23" fill="#FFFF00"/>
<rect x="103" y="20" width="23" height="23" fill="#FFFF00"/>
<rect x="103" y="20" width="23" height="23" fill="#FFFF00"/>
<rect x="103" y="43" width="23" height="23" fill="#FFFF00"/>
<rect x="103" y="66" width="23" height="23" fill="#FFFF00"/>
<rect x="103" y="89" width="23" height="23" fill="#FFFF00"/>
<rect x="57" y="66" width="23" height="23" fill="#FFFF00"/>
<rect x="149" y="66" width="23" height="23" fill="#FFFF00"/>
<rect x="103" y="112" width="23" height="23" fill="#FFFF00"/>
<rect x="57" y="89" width="23" height="23" fill="#FFFF00"/>
<rect x="149" y="89" width="23" height="23" fill="#FFFF00"/>
<rect x="149" y="112" width="23" height="23" fill="#FFFF00"/>
<rect x="149" y="135" width="23" height="23" fill="#FFFF00"/>
<rect x="149" y="158" width="23" height="23" fill="#FFFF00"/>
<rect x="149" y="181" width="23" height="23" fill="#FFFF00"/>
<rect x="149" y="204" width="23" height="23" fill="#FFFF00"/>
<rect x="149" y="227" width="23" height="23" fill="#FFFF00"/>
<rect x="149" y="250" width="23" height="23" fill="#FFFF00"/>
<rect x="172" y="257" width="23" height="23" fill="#FFFF00"/>
<rect x="34" y="258" width="23" height="23" fill="#FFFF00"/>
<rect x="195" y="280" width="23" height="23" fill="#FFFF00"/>
<rect x="11" y="281" width="23" height="23" fill="#FFFF00"/>
<rect x="11" y="304" width="23" height="23" fill="#FFFF00"/>
<rect x="11" y="327" width="23" height="23" fill="#FFFF00"/>
<rect x="103" y="319" width="23" height="23" fill="#FFFF00"/>
<rect x="103" y="296" width="23" height="23" fill="#FFFF00"/>
<rect x="34" y="304" width="23" height="23" fill="#FFFF00"/>
<rect x="195" y="303" width="23" height="23" fill="#FFFF00"/>
<rect x="172" y="303" width="23" height="23" fill="#FFFF00"/>
<rect x="195" y="326" width="23" height="23" fill="#FFFF00"/>
<rect x="149" y="273" width="23" height="23" fill="#FFFF00"/>
<rect x="57" y="66" width="23" height="23" fill="#FFFF00"/>
<rect x="149" y="296" width="23" height="23" fill="#FFFF00"/>
<rect x="80" y="66" width="23" height="23" fill="#FFFF00"/>
<rect x="149" y="319" width="23" height="23" fill="#FFFF00"/>
<rect x="126" y="66" width="23" height="23" fill="#FFFF00"/>
<rect x="57" y="112" width="23" height="23" fill="#FFFF00"/>
<rect x="57" y="89" width="23" height="23" fill="#FFFF00"/>
<rect x="57" y="112" width="23" height="23" fill="#FFFF00"/>
<rect x="80" y="89" width="23" height="23" fill="#FFFF00"/>
<rect x="80" y="112" width="23" height="23" fill="#FFFF00"/>
<rect x="126" y="89" width="23" height="23" fill="#FFFF00"/>
<rect x="126" y="112" width="23" height="23" fill="#FFFF00"/>
<rect x="57" y="135" width="23" height="23" fill="#FFFF00"/>
<rect x="80" y="135" width="23" height="23" fill="#FFFF00"/>
<rect x="103" y="135" width="23" height="23" fill="#FFFF00"/>
<rect x="126" y="135" width="23" height="23" fill="#FFFF00"/>
<rect x="57" y="158" width="23" height="23" fill="#FFFF00"/>
<rect x="57" y="181" width="23" height="23" fill="#FFFF00"/>
<rect x="57" y="204" width="23" height="23" fill="#FFFF00"/>
<rect x="57" y="227" width="23" height="23" fill="#FFFF00"/>
<rect x="57" y="250" width="23" height="23" fill="#FFFF00"/>
<rect x="57" y="273" width="23" height="23" fill="#FFFF00"/>
<rect x="103" y="158" width="23" height="23" fill="#FFFF00"/>
<rect x="103" y="181" width="23" height="23" fill="#FFFF00"/>
<rect x="103" y="204" width="23" height="23" fill="#FFFF00"/>
<rect x="103" y="227" width="23" height="23" fill="#FFFF00"/>
<rect x="103" y="250" width="23" height="23" fill="#FFFF00"/>
<rect x="103" y="273" width="23" height="23" fill="#FFFF00"/>
<rect x="80" y="319" width="23" height="23" fill="#FFFF00"/>
<rect x="80" y="296" width="23" height="23" fill="#FFFF00"/>
<rect x="80" y="158" width="23" height="23" fill="#FFFF00"/>
<rect x="80" y="181" width="23" height="23" fill="#FFFF00"/>
<rect x="80" y="204" width="23" height="23" fill="#FFFF00"/>
<rect x="80" y="227" width="23" height="23" fill="#FFFF00"/>
<rect x="80" y="250" width="23" height="23" fill="#FFFF00"/>
<rect x="80" y="273" width="23" height="23" fill="#FFFF00"/>
<rect x="126" y="319" width="23" height="23" fill="#FFFF00"/>
<rect x="126" y="296" width="23" height="23" fill="#FFFF00"/>
<rect x="126" y="158" width="23" height="23" fill="#FFFF00"/>
<rect x="126" y="181" width="23" height="23" fill="#FFFF00"/>
<rect x="126" y="204" width="23" height="23" fill="#FFFF00"/>
<rect x="126" y="227" width="23" height="23" fill="#FFFF00"/>
<rect x="126" y="250" width="23" height="23" fill="#FFFF00"/>
<rect x="126" y="273" width="23" height="23" fill="#FFFF00"/>
<rect x="34" y="281" width="23" height="23" fill="#FFFF00"/>
<rect x="172" y="280" width="23" height="23" fill="#FFFF00"/>
<rect x="57" y="296" width="23" height="23" fill="#FFFF00"/>
<rect x="57" y="319" width="23" height="23" fill="#FFFF00"/>
<rect x="126" y="342" width="23" height="23" fill="#FFFF00"/>
<rect x="103" y="342" width="23" height="23" fill="#FFFF00"/>
<rect x="80" y="342" width="23" height="23" fill="#FFFF00"/>
<rect x="57" y="365" width="23" height="23" fill="#FFFF00"/>
<rect x="57" y="388" width="23" height="23" fill="#FFFF00"/>
<rect x="80" y="365" width="23" height="23" fill="#FFFF00"/>
<rect x="80" y="388" width="23" height="23" fill="#FFFF00"/>
<rect x="126" y="365" width="23" height="23" fill="#FFFF00"/>
<rect x="126" y="388" width="23" height="23" fill="#FFFF00"/>
<rect x="80" y="411" width="23" height="23" fill="#FFFF00"/>
<rect x="80" y="434" width="23" height="23" fill="#FFFF00"/>
<rect x="103" y="434" width="23" height="23" fill="#FFFF00"/>
<rect x="103" y="457" width="23" height="23" fill="#FFFF00"/>
<rect x="103" y="411" width="23" height="23" fill="#FFFF00"/>
<rect x="103" y="388" width="23" height="23" fill="#FFFF00"/>
<rect x="103" y="365" width="23" height="23" fill="#FFFF00"/>
<rect x="126" y="411" width="23" height="23" fill="#FFFF00"/>
<rect x="126" y="434" width="23" height="23" fill="#FFFF00"/>
<rect x="149" y="388" width="23" height="23" fill="#FFFF00"/>
<rect x="149" y="365" width="23" height="23" fill="#FFFF00"/>
<rect x="69" y="33" width="23" height="23" fill="#FF00FF"/>
<rect x="115" y="33" width="23" height="23" fill="#FF00FF"/>
<rect x="92" y="10" width="23" height="23" fill="#FF00FF"/>
<rect x="92" y="10" width="23" height="23" fill="#FF00FF"/>
<rect x="92" y="33" width="23" height="23" fill="#FF00FF"/>
<rect x="92" y="56" width="23" height="23" fill="#FF00FF"/>
<rect x="92" y="79" width="23" height="23" fill="#FF00FF"/>
<rect x="46" y="56" width="23" height="23" fill="#FF00FF"/>
<rect x="138" y="56" width="23" height="23" fill="#FF00FF"/>
<rect x="92" y="102" width="23" height="23" fill="#FF00FF"/>
<rect x="46" y="79" width="23" height="23" fill="#FF00FF"/>
<rect x="138" y="79" width="23" height="23" fill="#FF00FF"/>
<rect x="138" y="102" width="23" height="23" fill="#FF00FF"/>
<rect x="138" y="125" width="23" height="23" fill="#FF00FF"/>
<rect x="138" y="148" width="23" height="23" fill="#FF00FF"/>
<rect x="138" y="171" width="23" height="23" fill="#FF00FF"/>
<rect x="138" y="194" width="23" height="23" fill="#FF00FF"/>
<rect x="138" y="217" width="23" height="23" fill="#FF00FF"/>
<rect x="138" y="240" width="23" height="23" fill="#FF00FF"/>
<rect x="161" y="247" width="23" height="23" fill="#FF00FF"/>
<rect x="23" y="248" width="23" height="23" fill="#FF00FF"/>
<rect x="184" y="270" width="23" height="23" fill="#FF00FF"/>
<rect y="271" width="23" height="23" fill="#FF00FF"/>
<rect y="294" width="23" height="23" fill="#FF00FF"/>
<rect y="317" width="23" height="23" fill="#FF00FF"/>
<rect x="92" y="309" width="23" height="23" fill="#FF00FF"/>
<rect x="92" y="286" width="23" height="23" fill="#FF00FF"/>
<rect x="23" y="294" width="23" height="23" fill="#FF00FF"/>
<rect x="184" y="293" width="23" height="23" fill="#FF00FF"/>
<rect x="161" y="293" width="23" height="23" fill="#FF00FF"/>
<rect x="184" y="316" width="23" height="23" fill="#FF00FF"/>
<rect x="138" y="263" width="23" height="23" fill="#FF00FF"/>
<rect x="46" y="56" width="23" height="23" fill="#FF00FF"/>
<rect x="138" y="286" width="23" height="23" fill="#FF00FF"/>
<rect x="69" y="56" width="23" height="23" fill="#FF00FF"/>
<rect x="138" y="309" width="23" height="23" fill="#FF00FF"/>
<rect x="115" y="56" width="23" height="23" fill="#FF00FF"/>
<rect x="46" y="102" width="23" height="23" fill="#FF00FF"/>
<rect x="46" y="79" width="23" height="23" fill="#FF00FF"/>
<rect x="46" y="102" width="23" height="23" fill="#FF00FF"/>
<rect x="69" y="79" width="23" height="23" fill="#FF00FF"/>
<rect x="69" y="102" width="23" height="23" fill="#FF00FF"/>
<rect x="115" y="79" width="23" height="23" fill="#FF00FF"/>
<rect x="115" y="102" width="23" height="23" fill="#FF00FF"/>
<rect x="46" y="125" width="23" height="23" fill="#FF00FF"/>
<rect x="69" y="125" width="23" height="23" fill="#FF00FF"/>
<rect x="92" y="125" width="23" height="23" fill="#FF00FF"/>
<rect x="115" y="125" width="23" height="23" fill="#FF00FF"/>
<rect x="46" y="148" width="23" height="23" fill="#FF00FF"/>
<rect x="46" y="171" width="23" height="23" fill="#FF00FF"/>
<rect x="46" y="194" width="23" height="23" fill="#FF00FF"/>
<rect x="46" y="217" width="23" height="23" fill="#FF00FF"/>
<rect x="46" y="240" width="23" height="23" fill="#FF00FF"/>
<rect x="46" y="263" width="23" height="23" fill="#FF00FF"/>
<rect x="92" y="148" width="23" height="23" fill="#FF00FF"/>
<rect x="92" y="171" width="23" height="23" fill="#FF00FF"/>
<rect x="92" y="194" width="23" height="23" fill="#FF00FF"/>
<rect x="92" y="217" width="23" height="23" fill="#FF00FF"/>
<rect x="92" y="240" width="23" height="23" fill="#FF00FF"/>
<rect x="92" y="263" width="23" height="23" fill="#FF00FF"/>
<rect x="69" y="309" width="23" height="23" fill="#FF00FF"/>
<rect x="69" y="286" width="23" height="23" fill="#FF00FF"/>
<rect x="69" y="148" width="23" height="23" fill="#FF00FF"/>
<rect x="69" y="171" width="23" height="23" fill="#FF00FF"/>
<rect x="69" y="194" width="23" height="23" fill="#FF00FF"/>
<rect x="69" y="217" width="23" height="23" fill="#FF00FF"/>
<rect x="69" y="240" width="23" height="23" fill="#FF00FF"/>
<rect x="69" y="263" width="23" height="23" fill="#FF00FF"/>
<rect x="115" y="309" width="23" height="23" fill="#FF00FF"/>
<rect x="115" y="286" width="23" height="23" fill="#FF00FF"/>
<rect x="115" y="148" width="23" height="23" fill="#FF00FF"/>
<rect x="115" y="171" width="23" height="23" fill="#FF00FF"/>
<rect x="115" y="194" width="23" height="23" fill="#FF00FF"/>
<rect x="115" y="217" width="23" height="23" fill="#FF00FF"/>
<rect x="115" y="240" width="23" height="23" fill="#FF00FF"/>
<rect x="115" y="263" width="23" height="23" fill="#FF00FF"/>
<rect x="23" y="271" width="23" height="23" fill="#FF00FF"/>
<rect x="161" y="270" width="23" height="23" fill="#FF00FF"/>
<rect x="46" y="286" width="23" height="23" fill="#FF00FF"/>
<rect x="46" y="309" width="23" height="23" fill="#FF00FF"/>
<rect x="115" y="332" width="23" height="23" fill="#FF00FF"/>
<rect x="92" y="332" width="23" height="23" fill="#FF00FF"/>
<rect x="69" y="332" width="23" height="23" fill="#FF00FF"/>
<rect x="46" y="355" width="23" height="23" fill="#FF00FF"/>
<rect x="46" y="378" width="23" height="23" fill="#FF00FF"/>
<rect x="69" y="355" width="23" height="23" fill="#FF00FF"/>
<rect x="69" y="378" width="23" height="23" fill="#FF00FF"/>
<rect x="115" y="355" width="23" height="23" fill="#FF00FF"/>
<rect x="115" y="378" width="23" height="23" fill="#FF00FF"/>
<rect x="69" y="401" width="23" height="23" fill="#FF00FF"/>
<rect x="69" y="424" width="23" height="23" fill="#FF00FF"/>
<rect x="92" y="424" width="23" height="23" fill="#FF00FF"/>
<rect x="92" y="447" width="23" height="23" fill="#FF00FF"/>
<rect x="92" y="401" width="23" height="23" fill="#FF00FF"/>
<rect x="92" y="378" width="23" height="23" fill="#FF00FF"/>
<rect x="92" y="355" width="23" height="23" fill="#FF00FF"/>
<rect x="115" y="401" width="23" height="23" fill="#FF00FF"/>
<rect x="115" y="424" width="23" height="23" fill="#FF00FF"/>
<rect x="138" y="378" width="23" height="23" fill="#FF00FF"/>
<rect x="138" y="355" width="23" height="23" fill="#FF00FF"/>
<rect x="90" y="33" width="23" height="23" fill="#00FFFF"/>
<rect x="136" y="33" width="23" height="23" fill="#00FFFF"/>
<rect x="113" y="10" width="23" height="23" fill="#00FFFF"/>
<rect x="113" y="10" width="23" height="23" fill="#00FFFF"/>
<rect x="113" y="33" width="23" height="23" fill="#00FFFF"/>
<rect x="113" y="56" width="23" height="23" fill="#00FFFF"/>
<rect x="113" y="79" width="23" height="23" fill="#00FFFF"/>
<rect x="67" y="56" width="23" height="23" fill="#00FFFF"/>
<rect x="159" y="56" width="23" height="23" fill="#00FFFF"/>
<rect x="113" y="102" width="23" height="23" fill="#00FFFF"/>
<rect x="67" y="79" width="23" height="23" fill="#00FFFF"/>
<rect x="159" y="79" width="23" height="23" fill="#00FFFF"/>
<rect x="159" y="102" width="23" height="23" fill="#00FFFF"/>
<rect x="159" y="125" width="23" height="23" fill="#00FFFF"/>
<rect x="159" y="148" width="23" height="23" fill="#00FFFF"/>
<rect x="159" y="171" width="23" height="23" fill="#00FFFF"/>
<rect x="159" y="194" width="23" height="23" fill="#00FFFF"/>
<rect x="159" y="217" width="23" height="23" fill="#00FFFF"/>
<rect x="159" y="240" width="23" height="23" fill="#00FFFF"/>
<rect x="182" y="247" width="23" height="23" fill="#00FFFF"/>
<rect x="44" y="248" width="23" height="23" fill="#00FFFF"/>
<rect x="205" y="270" width="23" height="23" fill="#00FFFF"/>
<rect x="21" y="271" width="23" height="23" fill="#00FFFF"/>
<rect x="21" y="294" width="23" height="23" fill="#00FFFF"/>
<rect x="21" y="317" width="23" height="23" fill="#00FFFF"/>
<rect x="113" y="309" width="23" height="23" fill="#00FFFF"/>
<rect x="113" y="286" width="23" height="23" fill="#00FFFF"/>
<rect x="44" y="294" width="23" height="23" fill="#00FFFF"/>
<rect x="205" y="293" width="23" height="23" fill="#00FFFF"/>
<rect x="182" y="293" width="23" height="23" fill="#00FFFF"/>
<rect x="205" y="316" width="23" height="23" fill="#00FFFF"/>
<rect x="159" y="263" width="23" height="23" fill="#00FFFF"/>
<rect x="67" y="56" width="23" height="23" fill="#00FFFF"/>
<rect x="159" y="286" width="23" height="23" fill="#00FFFF"/>
<rect x="90" y="56" width="23" height="23" fill="#00FFFF"/>
<rect x="159" y="309" width="23" height="23" fill="#00FFFF"/>
<rect x="136" y="56" width="23" height="23" fill="#00FFFF"/>
<rect x="67" y="102" width="23" height="23" fill="#00FFFF"/>
<rect x="67" y="79" width="23" height="23" fill="#00FFFF"/>
<rect x="67" y="102" width="23" height="23" fill="#00FFFF"/>
<rect x="90" y="79" width="23" height="23" fill="#00FFFF"/>
<rect x="90" y="102" width="23" height="23" fill="#00FFFF"/>
<rect x="136" y="79" width="23" height="23" fill="#00FFFF"/>
<rect x="136" y="102" width="23" height="23" fill="#00FFFF"/>
<rect x="67" y="125" width="23" height="23" fill="#00FFFF"/>
<rect x="90" y="125" width="23" height="23" fill="#00FFFF"/>
<rect x="113" y="125" width="23" height="23" fill="#00FFFF"/>
<rect x="136" y="125" width="23" height="23" fill="#00FFFF"/>
<rect x="67" y="148" width="23" height="23" fill="#00FFFF"/>
<rect x="67" y="171" width="23" height="23" fill="#00FFFF"/>
<rect x="67" y="194" width="23" height="23" fill="#00FFFF"/>
<rect x="67" y="217" width="23" height="23" fill="#00FFFF"/>
<rect x="67" y="240" width="23" height="23" fill="#00FFFF"/>
<rect x="67" y="263" width="23" height="23" fill="#00FFFF"/>
<rect x="113" y="148" width="23" height="23" fill="#00FFFF"/>
<rect x="113" y="171" width="23" height="23" fill="#00FFFF"/>
<rect x="113" y="194" width="23" height="23" fill="#00FFFF"/>
<rect x="113" y="217" width="23" height="23" fill="#00FFFF"/>
<rect x="113" y="240" width="23" height="23" fill="#00FFFF"/>
<rect x="113" y="263" width="23" height="23" fill="#00FFFF"/>
<rect x="90" y="309" width="23" height="23" fill="#00FFFF"/>
<rect x="90" y="286" width="23" height="23" fill="#00FFFF"/>
<rect x="90" y="148" width="23" height="23" fill="#00FFFF"/>
<rect x="90" y="171" width="23" height="23" fill="#00FFFF"/>
<rect x="90" y="194" width="23" height="23" fill="#00FFFF"/>
<rect x="90" y="217" width="23" height="23" fill="#00FFFF"/>
<rect x="90" y="240" width="23" height="23" fill="#00FFFF"/>
<rect x="90" y="263" width="23" height="23" fill="#00FFFF"/>
<rect x="136" y="309" width="23" height="23" fill="#00FFFF"/>
<rect x="136" y="286" width="23" height="23" fill="#00FFFF"/>
<rect x="136" y="148" width="23" height="23" fill="#00FFFF"/>
<rect x="136" y="171" width="23" height="23" fill="#00FFFF"/>
<rect x="136" y="194" width="23" height="23" fill="#00FFFF"/>
<rect x="136" y="217" width="23" height="23" fill="#00FFFF"/>
<rect x="136" y="240" width="23" height="23" fill="#00FFFF"/>
<rect x="136" y="263" width="23" height="23" fill="#00FFFF"/>
<rect x="44" y="271" width="23" height="23" fill="#00FFFF"/>
<rect x="182" y="270" width="23" height="23" fill="#00FFFF"/>
<rect x="67" y="286" width="23" height="23" fill="#00FFFF"/>
<rect x="67" y="309" width="23" height="23" fill="#00FFFF"/>
<rect x="136" y="332" width="23" height="23" fill="#00FFFF"/>
<rect x="113" y="332" width="23" height="23" fill="#00FFFF"/>
<rect x="90" y="332" width="23" height="23" fill="#00FFFF"/>
<rect x="67" y="355" width="23" height="23" fill="#00FFFF"/>
<rect x="67" y="378" width="23" height="23" fill="#00FFFF"/>
<rect x="90" y="355" width="23" height="23" fill="#00FFFF"/>
<rect x="90" y="378" width="23" height="23" fill="#00FFFF"/>
<rect x="136" y="355" width="23" height="23" fill="#00FFFF"/>
<rect x="136" y="378" width="23" height="23" fill="#00FFFF"/>
<rect x="90" y="401" width="23" height="23" fill="#00FFFF"/>
<rect x="90" y="424" width="23" height="23" fill="#00FFFF"/>
<rect x="113" y="424" width="23" height="23" fill="#00FFFF"/>
<rect x="113" y="447" width="23" height="23" fill="#00FFFF"/>
<rect x="113" y="401" width="23" height="23" fill="#00FFFF"/>
<rect x="113" y="378" width="23" height="23" fill="#00FFFF"/>
<rect x="113" y="355" width="23" height="23" fill="#00FFFF"/>
<rect x="136" y="401" width="23" height="23" fill="#00FFFF"/>
<rect x="136" y="424" width="23" height="23" fill="#00FFFF"/>
<rect x="159" y="378" width="23" height="23" fill="#00FFFF"/>
<rect x="159" y="355" width="23" height="23" fill="#00FFFF"/>
<rect x="80" y="33" width="23" height="23" fill="black"/>
<rect x="126" y="33" width="23" height="23" fill="black"/>
<rect x="103" y="10" width="23" height="23" fill="black"/>
<rect x="103" y="10" width="23" height="23" fill="black"/>
<rect x="103" y="33" width="23" height="23" fill="#666666"/>
<rect x="103" y="56" width="23" height="23" fill="#999999"/>
<rect x="103" y="79" width="23" height="23" fill="#999999"/>
<rect x="57" y="56" width="23" height="23" fill="black"/>
<rect x="149" y="56" width="23" height="23" fill="black"/>
<rect x="103" y="102" width="23" height="23" fill="#999999"/>
<rect x="57" y="79" width="23" height="23" fill="black"/>
<rect x="149" y="79" width="23" height="23" fill="black"/>
<rect x="149" y="102" width="23" height="23" fill="black"/>
<rect x="149" y="125" width="23" height="23" fill="black"/>
<rect x="149" y="148" width="23" height="23" fill="black"/>
<rect x="149" y="171" width="23" height="23" fill="black"/>
<rect x="149" y="194" width="23" height="23" fill="black"/>
<rect x="149" y="217" width="23" height="23" fill="black"/>
<rect x="149" y="240" width="23" height="23" fill="black"/>
<rect x="172" y="247" width="23" height="23" fill="black"/>
<rect x="34" y="248" width="23" height="23" fill="black"/>
<rect x="195" y="270" width="23" height="23" fill="black"/>
<rect x="11" y="271" width="23" height="23" fill="black"/>
<rect x="11" y="294" width="23" height="23" fill="black"/>
<rect x="11" y="317" width="23" height="23" fill="black"/>
<rect x="103" y="309" width="23" height="23" fill="#999999"/>
<rect x="103" y="286" width="23" height="23" fill="#999999"/>
<rect x="34" y="294" width="23" height="23" fill="black"/>
<rect x="195" y="293" width="23" height="23" fill="black"/>
<rect x="172" y="293" width="23" height="23" fill="black"/>
<rect x="195" y="316" width="23" height="23" fill="black"/>
<rect x="149" y="263" width="23" height="23" fill="black"/>
<rect x="57" y="56" width="23" height="23" fill="black"/>
<rect x="149" y="286" width="23" height="23" fill="black"/>
<rect x="80" y="56" width="23" height="23" fill="#666666"/>
<rect x="149" y="309" width="23" height="23" fill="black"/>
<rect x="126" y="56" width="23" height="23" fill="#666666"/>
<rect x="57" y="102" width="23" height="23" fill="black"/>
<rect x="57" y="79" width="23" height="23" fill="black"/>
<rect x="57" y="102" width="23" height="23" fill="black"/>
<rect x="80" y="79" width="23" height="23" fill="#666666"/>
<rect x="80" y="102" width="23" height="23" fill="#666666"/>
<rect x="126" y="79" width="23" height="23" fill="#666666"/>
<rect x="126" y="102" width="23" height="23" fill="#666666"/>
<rect x="57" y="125" width="23" height="23" fill="black"/>
<rect x="80" y="125" width="23" height="23" fill="black"/>
<rect x="103" y="125" width="23" height="23" fill="#666666"/>
<rect x="126" y="125" width="23" height="23" fill="black"/>
<rect x="57" y="148" width="23" height="23" fill="black"/>
<rect x="57" y="171" width="23" height="23" fill="black"/>
<rect x="57" y="194" width="23" height="23" fill="black"/>
<rect x="57" y="217" width="23" height="23" fill="black"/>
<rect x="57" y="240" width="23" height="23" fill="black"/>
<rect x="57" y="263" width="23" height="23" fill="black"/>
<rect x="103" y="148" width="23" height="23" fill="#999999"/>
<rect x="103" y="171" width="23" height="23" fill="#999999"/>
<rect x="103" y="194" width="23" height="23" fill="#999999"/>
<rect x="103" y="217" width="23" height="23" fill="#999999"/>
<rect x="103" y="240" width="23" height="23" fill="#999999"/>
<rect x="103" y="263" width="23" height="23" fill="#999999"/>
<rect x="80" y="309" width="23" height="23" fill="#666666"/>
<rect x="80" y="286" width="23" height="23" fill="#666666"/>
<rect x="80" y="148" width="23" height="23" fill="#666666"/>
<rect x="80" y="171" width="23" height="23" fill="#666666"/>
<rect x="80" y="194" width="23" height="23" fill="#666666"/>
<rect x="80" y="217" width="23" height="23" fill="#666666"/>
<rect x="80" y="240" width="23" height="23" fill="#666666"/>
<rect x="80" y="263" width="23" height="23" fill="#666666"/>
<rect x="126" y="309" width="23" height="23" fill="#666666"/>
<rect x="126" y="286" width="23" height="23" fill="#666666"/>
<rect x="126" y="148" width="23" height="23" fill="#666666"/>
<rect x="126" y="171" width="23" height="23" fill="#666666"/>
<rect x="126" y="194" width="23" height="23" fill="#666666"/>
<rect x="126" y="217" width="23" height="23" fill="#666666"/>
<rect x="126" y="240" width="23" height="23" fill="#666666"/>
<rect x="126" y="263" width="23" height="23" fill="#666666"/>
<rect x="34" y="271" width="23" height="23" fill="#999999"/>
<rect x="172" y="270" width="23" height="23" fill="#999999"/>
<rect x="57" y="286" width="23" height="23" fill="black"/>
<rect x="57" y="309" width="23" height="23" fill="black"/>
<rect x="126" y="332" width="23" height="23" fill="black"/>
<rect x="103" y="332" width="23" height="23" fill="#666666"/>
<rect x="80" y="332" width="23" height="23" fill="black"/>
<rect x="57" y="355" width="23" height="23" fill="#FF0000"/>
<rect x="57" y="378" width="23" height="23" fill="#FF0000"/>
<rect x="80" y="355" width="23" height="23" fill="#FF9900"/>
<rect x="80" y="378" width="23" height="23" fill="#FF9900"/>
<rect x="126" y="355" width="23" height="23" fill="#FF9900"/>
<rect x="126" y="378" width="23" height="23" fill="#FF9900"/>
<rect x="80" y="401" width="23" height="23" fill="#FF0000"/>
<rect x="80" y="424" width="23" height="23" fill="#FF0000"/>
<rect x="103" y="424" width="23" height="23" fill="#FF9900"/>
<rect x="103" y="447" width="23" height="23" fill="#FF0000"/>
<rect x="103" y="401" width="23" height="23" fill="#FFFF00"/>
<rect x="103" y="378" width="23" height="23" fill="#FFFF00"/>
<rect x="103" y="355" width="23" height="23" fill="#FFFF00"/>
<rect x="126" y="401" width="23" height="23" fill="#FF0000"/>
<rect x="126" y="424" width="23" height="23" fill="#FF0000"/>
<rect x="149" y="378" width="23" height="23" fill="#FF0000"/>
<rect x="149" y="355" width="23" height="23" fill="#FF0000"/>
<path d="M348.993 239H302.587V108.091H349.377C362.544 108.091 373.879 110.712 383.382 115.953C392.885 121.152 400.193 128.631 405.307 138.389C410.463 148.148 413.041 159.824 413.041 173.418C413.041 187.054 410.463 198.773 405.307 208.574C400.193 218.375 392.843 225.896 383.254 231.138C373.709 236.379 362.289 239 348.993 239ZM330.264 215.286H347.843C356.024 215.286 362.906 213.837 368.489 210.939C374.114 207.999 378.333 203.46 381.145 197.324C384 191.145 385.428 183.176 385.428 173.418C385.428 163.744 384 155.839 381.145 149.703C378.333 143.567 374.135 139.05 368.553 136.152C362.97 133.254 356.088 131.805 347.906 131.805H330.264V215.286ZM477.777 240.918C467.677 240.918 458.984 238.872 451.697 234.781C444.453 230.648 438.871 224.81 434.95 217.267C431.03 209.682 429.069 200.712 429.069 190.357C429.069 180.257 431.03 171.393 434.95 163.766C438.871 156.138 444.389 150.193 451.506 145.932C458.665 141.67 467.059 139.54 476.69 139.54C483.167 139.54 489.197 140.584 494.78 142.672C500.405 144.717 505.305 147.807 509.481 151.94C513.7 156.074 516.981 161.273 519.325 167.537C521.669 173.759 522.841 181.045 522.841 189.398V196.876H439.936V180.001H497.209C497.209 176.081 496.356 172.608 494.652 169.582C492.947 166.557 490.582 164.192 487.557 162.487C484.574 160.74 481.101 159.866 477.138 159.866C473.004 159.866 469.339 160.825 466.143 162.743C462.99 164.618 460.518 167.153 458.729 170.349C456.939 173.503 456.023 177.018 455.98 180.896V196.94C455.98 201.798 456.875 205.996 458.665 209.533C460.497 213.07 463.075 215.797 466.399 217.714C469.723 219.632 473.665 220.591 478.224 220.591C481.25 220.591 484.02 220.165 486.534 219.312C489.048 218.46 491.2 217.182 492.99 215.477C494.78 213.773 496.143 211.685 497.081 209.213L522.265 210.875C520.987 216.926 518.366 222.21 514.403 226.727C510.483 231.202 505.412 234.696 499.19 237.21C493.011 239.682 485.873 240.918 477.777 240.918ZM540.611 275.818V140.818H567.457V157.31H568.672C569.865 154.668 571.591 151.983 573.849 149.256C576.15 146.486 579.133 144.185 582.798 142.352C586.506 140.477 591.108 139.54 596.605 139.54C603.764 139.54 610.369 141.415 616.42 145.165C622.471 148.872 627.308 154.476 630.93 161.976C634.552 169.433 636.363 178.787 636.363 190.037C636.363 200.989 634.595 210.236 631.058 217.778C627.564 225.278 622.791 230.967 616.74 234.845C610.731 238.68 603.998 240.598 596.541 240.598C591.257 240.598 586.761 239.724 583.054 237.977C579.389 236.23 576.385 234.036 574.041 231.393C571.697 228.709 569.907 226.003 568.672 223.276H567.841V275.818H540.611ZM567.265 189.909C567.265 195.747 568.075 200.839 569.694 205.186C571.314 209.533 573.657 212.92 576.726 215.349C579.794 217.736 583.523 218.929 587.912 218.929C592.344 218.929 596.094 217.714 599.162 215.286C602.23 212.814 604.552 209.405 606.129 205.058C607.748 200.669 608.558 195.619 608.558 189.909C608.558 184.241 607.77 179.256 606.193 174.952C604.616 170.648 602.294 167.281 599.226 164.852C596.157 162.423 592.386 161.209 587.912 161.209C583.48 161.209 579.73 162.381 576.662 164.724C573.636 167.068 571.314 170.392 569.694 174.696C568.075 179 567.265 184.071 567.265 189.909ZM681.747 108.091V239H654.517V108.091H681.747ZM747.921 240.918C737.992 240.918 729.405 238.808 722.161 234.589C714.959 230.328 709.398 224.405 705.477 216.82C701.557 209.192 699.597 200.349 699.597 190.293C699.597 180.151 701.557 171.287 705.477 163.702C709.398 156.074 714.959 150.151 722.161 145.932C729.405 141.67 737.992 139.54 747.921 139.54C757.85 139.54 766.415 141.67 773.617 145.932C780.861 150.151 786.443 156.074 790.364 163.702C794.284 171.287 796.245 180.151 796.245 190.293C796.245 200.349 794.284 209.192 790.364 216.82C786.443 224.405 780.861 230.328 773.617 234.589C766.415 238.808 757.85 240.918 747.921 240.918ZM748.048 219.824C752.566 219.824 756.337 218.545 759.362 215.989C762.388 213.389 764.668 209.852 766.202 205.378C767.779 200.903 768.567 195.811 768.567 190.101C768.567 184.391 767.779 179.298 766.202 174.824C764.668 170.349 762.388 166.812 759.362 164.213C756.337 161.614 752.566 160.314 748.048 160.314C743.489 160.314 739.654 161.614 736.543 164.213C733.475 166.812 731.152 170.349 729.575 174.824C728.041 179.298 727.274 184.391 727.274 190.101C727.274 195.811 728.041 200.903 729.575 205.378C731.152 209.852 733.475 213.389 736.543 215.989C739.654 218.545 743.489 219.824 748.048 219.824ZM827.597 275.818C824.146 275.818 820.907 275.541 817.882 274.987C814.899 274.476 812.427 273.815 810.467 273.006L816.603 252.679C819.799 253.659 822.676 254.192 825.232 254.277C827.832 254.362 830.069 253.766 831.944 252.487C833.862 251.209 835.417 249.036 836.61 245.967L838.208 241.812L802.988 140.818H831.624L851.951 212.92H852.974L873.492 140.818H902.32L864.16 249.611C862.328 254.895 859.835 259.497 856.681 263.418C853.57 267.381 849.629 270.428 844.856 272.558C840.083 274.732 834.33 275.818 827.597 275.818ZM1032.27 153.922H1004.27C1003.76 150.3 1002.72 147.082 1001.14 144.27C999.565 141.415 997.541 138.986 995.069 136.983C992.597 134.98 989.742 133.446 986.504 132.381C983.308 131.315 979.835 130.783 976.085 130.783C969.309 130.783 963.407 132.466 958.379 135.832C953.35 139.156 949.451 144.014 946.681 150.406C943.911 156.756 942.526 164.469 942.526 173.545C942.526 182.878 943.911 190.719 946.681 197.068C949.494 203.418 953.414 208.212 958.443 211.45C963.471 214.689 969.288 216.308 975.893 216.308C979.6 216.308 983.031 215.818 986.184 214.838C989.38 213.858 992.214 212.43 994.686 210.555C997.157 208.638 999.203 206.315 1000.82 203.588C1002.48 200.861 1003.63 197.75 1004.27 194.256L1032.27 194.384C1031.55 200.392 1029.74 206.188 1026.84 211.77C1023.98 217.31 1020.13 222.274 1015.27 226.663C1010.45 231.01 1004.7 234.462 998.009 237.018C991.362 239.533 983.84 240.79 975.445 240.79C963.769 240.79 953.329 238.148 944.124 232.864C934.963 227.58 927.718 219.93 922.392 209.916C917.107 199.902 914.465 187.778 914.465 173.545C914.465 159.27 917.15 147.125 922.519 137.111C927.889 127.097 935.176 119.469 944.38 114.227C953.585 108.943 963.94 106.301 975.445 106.301C983.031 106.301 990.062 107.366 996.539 109.497C1003.06 111.628 1008.83 114.739 1013.86 118.83C1018.89 122.878 1022.98 127.842 1026.13 133.723C1029.33 139.604 1031.38 146.337 1032.27 153.922ZM1095.97 240.918C1086.04 240.918 1077.45 238.808 1070.21 234.589C1063.01 230.328 1057.44 224.405 1053.52 216.82C1049.6 209.192 1047.64 200.349 1047.64 190.293C1047.64 180.151 1049.6 171.287 1053.52 163.702C1057.44 156.074 1063.01 150.151 1070.21 145.932C1077.45 141.67 1086.04 139.54 1095.97 139.54C1105.9 139.54 1114.46 141.67 1121.66 145.932C1128.91 150.151 1134.49 156.074 1138.41 163.702C1142.33 171.287 1144.29 180.151 1144.29 190.293C1144.29 200.349 1142.33 209.192 1138.41 216.82C1134.49 224.405 1128.91 230.328 1121.66 234.589C1114.46 238.808 1105.9 240.918 1095.97 240.918ZM1096.1 219.824C1100.61 219.824 1104.38 218.545 1107.41 215.989C1110.43 213.389 1112.71 209.852 1114.25 205.378C1115.83 200.903 1116.61 195.811 1116.61 190.101C1116.61 184.391 1115.83 179.298 1114.25 174.824C1112.71 170.349 1110.43 166.812 1107.41 164.213C1104.38 161.614 1100.61 160.314 1096.1 160.314C1091.54 160.314 1087.7 161.614 1084.59 164.213C1081.52 166.812 1079.2 170.349 1077.62 174.824C1076.09 179.298 1075.32 184.391 1075.32 190.101C1075.32 195.811 1076.09 200.903 1077.62 205.378C1079.2 209.852 1081.52 213.389 1084.59 215.989C1087.7 218.545 1091.54 219.824 1096.1 219.824ZM1162 239V140.818H1188.4V157.949H1189.42C1191.21 151.855 1194.21 147.253 1198.43 144.142C1202.65 140.989 1207.51 139.412 1213.01 139.412C1214.37 139.412 1215.84 139.497 1217.42 139.668C1218.99 139.838 1220.38 140.072 1221.57 140.371V164.533C1220.29 164.149 1218.52 163.808 1216.27 163.51C1214.01 163.212 1211.94 163.062 1210.07 163.062C1206.06 163.062 1202.48 163.936 1199.33 165.683C1196.22 167.388 1193.74 169.774 1191.91 172.842C1190.12 175.911 1189.23 179.447 1189.23 183.453V239H1162ZM1275.82 240.918C1265.72 240.918 1257.03 238.872 1249.74 234.781C1242.5 230.648 1236.92 224.81 1233 217.267C1229.08 209.682 1227.12 200.712 1227.12 190.357C1227.12 180.257 1229.08 171.393 1233 163.766C1236.92 156.138 1242.44 150.193 1249.55 145.932C1256.71 141.67 1265.11 139.54 1274.74 139.54C1281.21 139.54 1287.24 140.584 1292.83 142.672C1298.45 144.717 1303.35 147.807 1307.53 151.94C1311.75 156.074 1315.03 161.273 1317.37 167.537C1319.72 173.759 1320.89 181.045 1320.89 189.398V196.876H1237.98V180.001H1295.26C1295.26 176.081 1294.4 172.608 1292.7 169.582C1290.99 166.557 1288.63 164.192 1285.6 162.487C1282.62 160.74 1279.15 159.866 1275.18 159.866C1271.05 159.866 1267.39 160.825 1264.19 162.743C1261.04 164.618 1258.57 167.153 1256.78 170.349C1254.99 173.503 1254.07 177.018 1254.03 180.896V196.94C1254.03 201.798 1254.92 205.996 1256.71 209.533C1258.54 213.07 1261.12 215.797 1264.45 217.714C1267.77 219.632 1271.71 220.591 1276.27 220.591C1279.3 220.591 1282.07 220.165 1284.58 219.312C1287.09 218.46 1289.25 217.182 1291.04 215.477C1292.83 213.773 1294.19 211.685 1295.13 209.213L1320.31 210.875C1319.03 216.926 1316.41 222.21 1312.45 226.727C1308.53 231.202 1303.46 234.696 1297.24 237.21C1291.06 239.682 1283.92 240.918 1275.82 240.918Z" fill="#AAAAAA"/>
<path d="M349.502 344.042V347H330.478V309.01H333.668V344.042H349.502ZM363.944 344.506C365.375 344.506 366.921 344.061 368.584 343.172C370.285 342.244 371.523 341.393 372.296 340.62V333.718C369.744 333.525 367.308 333.428 364.988 333.428C362.668 333.428 360.928 333.931 359.768 334.936C358.608 335.903 358.028 337.217 358.028 338.88C358.028 342.631 360 344.506 363.944 344.506ZM363.886 347.522C361.063 347.522 358.84 346.807 357.216 345.376C355.592 343.907 354.78 341.838 354.78 339.17C354.78 336.502 355.669 334.433 357.448 332.964C359.227 331.456 361.585 330.702 364.524 330.702C367.463 330.702 370.053 330.818 372.296 331.05C372.296 327.609 371.871 325.269 371.02 324.032C370.169 322.756 368.449 322.118 365.858 322.118C363.267 322.118 360.213 322.737 356.694 323.974L355.824 321.074C359.42 319.759 362.668 319.102 365.568 319.102C369.396 319.102 371.987 319.953 373.34 321.654C374.693 323.355 375.37 326.333 375.37 330.586V342.766L375.834 347.174L372.876 347.464L372.296 343.984C371.407 344.757 370.15 345.55 368.526 346.362C366.902 347.135 365.355 347.522 363.886 347.522ZM399.092 347L398.976 344.622C395.264 346.555 392.171 347.522 389.696 347.522C387.221 347.522 385.269 346.671 383.838 344.97C382.407 343.269 381.692 340.949 381.692 338.01V319.45H384.766V338.01C384.766 339.905 385.211 341.471 386.1 342.708C387.028 343.907 388.42 344.506 390.276 344.506C392.132 344.506 395.032 343.539 398.976 341.606V319.45H402.05V347H399.092ZM410.866 319.45L410.982 321.77C414.733 319.991 417.845 319.102 420.32 319.102C422.795 319.102 424.728 319.953 426.12 321.654C427.551 323.355 428.266 325.675 428.266 328.614V347H425.192V328.614C425.192 326.719 424.728 325.153 423.8 323.916C422.872 322.717 421.48 322.118 419.624 322.118C417.768 322.118 414.887 322.969 410.982 324.67V347H407.908V319.45H410.866ZM453.264 320.378L452.568 323.394C450.171 322.543 447.947 322.118 445.898 322.118C443.114 322.118 441.026 323.104 439.634 325.076C438.281 327.009 437.604 329.716 437.604 333.196C437.604 336.676 438.3 339.441 439.692 341.49C441.084 343.501 443.153 344.506 445.898 344.506C447.754 344.506 450.074 344.003 452.858 342.998L453.786 345.898C450.963 346.981 448.353 347.522 445.956 347.522C442.167 347.522 439.267 346.265 437.256 343.752C435.245 341.2 434.24 337.662 434.24 333.138C434.24 328.614 435.226 325.153 437.198 322.756C439.17 320.32 442.07 319.102 445.898 319.102C448.334 319.102 450.789 319.527 453.264 320.378ZM463.298 324.496V347H460.224V308.488H463.298V321.538C466.933 319.914 469.929 319.102 472.288 319.102C477.817 319.102 480.582 322.273 480.582 328.614V347H477.508V328.614C477.508 326.642 477.083 325.076 476.232 323.916C475.381 322.717 473.912 322.118 471.824 322.118C469.736 322.118 466.894 322.911 463.298 324.496ZM512.366 358.136V324.438L511.844 319.392L514.744 319.044L515.266 322.176C518.089 320.127 520.776 319.102 523.328 319.102C526.769 319.102 529.437 320.359 531.332 322.872C533.227 325.385 534.174 328.846 534.174 333.254C534.174 337.662 533.13 341.142 531.042 343.694C528.954 346.246 526.054 347.522 522.342 347.522C520.177 347.522 517.876 347 515.44 345.956V358.136H512.366ZM530.868 333.37C530.868 329.929 530.211 327.203 528.896 325.192C527.581 323.143 525.687 322.118 523.212 322.118C520.776 322.118 518.185 323.22 515.44 325.424V342.824C516.252 343.211 517.354 343.597 518.746 343.984C520.177 344.332 521.337 344.506 522.226 344.506C524.971 344.506 527.098 343.501 528.606 341.49C530.114 339.479 530.868 336.773 530.868 333.37ZM538.698 347V344.1H545.31V322.35H538.698V319.45H548.384L548.5 322.814C549.737 322.041 551.477 321.267 553.72 320.494C555.963 319.721 557.935 319.257 559.636 319.102H560.274V322.524H559.636C558.051 322.64 556.079 323.027 553.72 323.684C551.4 324.341 549.66 325.018 548.5 325.714V344.1H557.78V347H538.698ZM563.522 333.312C563.522 323.839 567.215 319.102 574.6 319.102C581.985 319.102 585.678 323.839 585.678 333.312C585.678 342.785 581.985 347.522 574.6 347.522C567.215 347.522 563.522 342.785 563.522 333.312ZM574.6 322.118C569.419 322.118 566.828 325.849 566.828 333.312C566.828 340.775 569.419 344.506 574.6 344.506C579.781 344.506 582.372 340.775 582.372 333.312C582.372 325.849 579.781 322.118 574.6 322.118ZM611.024 308.488V342.186L611.604 347.232L608.646 347.58L608.066 344.506C605.166 346.517 602.498 347.522 600.062 347.522C596.621 347.522 593.933 346.246 592 343.694C590.105 341.142 589.158 337.681 589.158 333.312C589.158 328.904 590.221 325.443 592.348 322.93C594.475 320.378 597.375 319.102 601.048 319.102C603.213 319.102 605.514 319.624 607.95 320.668V308.488H611.024ZM592.464 333.196C592.464 336.599 593.121 339.344 594.436 341.432C595.789 343.481 597.723 344.506 600.236 344.506C602.749 344.506 605.321 343.404 607.95 341.2V323.8C607.138 323.413 606.017 323.046 604.586 322.698C603.194 322.311 602.053 322.118 601.164 322.118C598.419 322.118 596.273 323.123 594.726 325.134C593.218 327.106 592.464 329.793 592.464 333.196ZM618.68 334.646V331.514H635.326V334.646H618.68ZM643.098 347V344.1H649.71V322.35H643.098V319.45H652.784L652.9 322.814C654.137 322.041 655.877 321.267 658.12 320.494C660.363 319.721 662.335 319.257 664.036 319.102H664.674V322.524H664.036C662.451 322.64 660.479 323.027 658.12 323.684C655.8 324.341 654.06 325.018 652.9 325.714V344.1H662.18V347H643.098ZM668.386 333.254C668.386 328.807 669.295 325.347 671.112 322.872C672.968 320.359 675.655 319.102 679.174 319.102C682.693 319.102 685.303 320.262 687.004 322.582C688.744 324.902 689.614 327.995 689.614 331.862L689.44 334.762H671.692C671.885 337.662 672.659 340.021 674.012 341.838C675.365 343.617 677.221 344.506 679.58 344.506C681.977 344.506 684.781 343.945 687.99 342.824L688.86 345.724C685.728 346.923 682.789 347.522 680.044 347.522C676.255 347.522 673.355 346.265 671.344 343.752C669.372 341.2 668.386 337.701 668.386 333.254ZM679.406 322.06C674.534 322.06 671.963 325.327 671.692 331.862H686.308C686.308 325.327 684.007 322.06 679.406 322.06ZM703.244 344.506C704.675 344.506 706.221 344.061 707.884 343.172C709.585 342.244 710.823 341.393 711.596 340.62V333.718C709.044 333.525 706.608 333.428 704.288 333.428C701.968 333.428 700.228 333.931 699.068 334.936C697.908 335.903 697.328 337.217 697.328 338.88C697.328 342.631 699.3 344.506 703.244 344.506ZM703.186 347.522C700.363 347.522 698.14 346.807 696.516 345.376C694.892 343.907 694.08 341.838 694.08 339.17C694.08 336.502 694.969 334.433 696.748 332.964C698.527 331.456 700.885 330.702 703.824 330.702C706.763 330.702 709.353 330.818 711.596 331.05C711.596 327.609 711.171 325.269 710.32 324.032C709.469 322.756 707.749 322.118 705.158 322.118C702.567 322.118 699.513 322.737 695.994 323.974L695.124 321.074C698.72 319.759 701.968 319.102 704.868 319.102C708.696 319.102 711.287 319.953 712.64 321.654C713.993 323.355 714.67 326.333 714.67 330.586V342.766L715.134 347.174L712.176 347.464L711.596 343.984C710.707 344.757 709.45 345.55 707.826 346.362C706.202 347.135 704.655 347.522 703.186 347.522ZM741.524 308.488V342.186L742.104 347.232L739.146 347.58L738.566 344.506C735.666 346.517 732.998 347.522 730.562 347.522C727.121 347.522 724.433 346.246 722.5 343.694C720.605 341.142 719.658 337.681 719.658 333.312C719.658 328.904 720.721 325.443 722.848 322.93C724.975 320.378 727.875 319.102 731.548 319.102C733.713 319.102 736.014 319.624 738.45 320.668V308.488H741.524ZM722.964 333.196C722.964 336.599 723.621 339.344 724.936 341.432C726.289 343.481 728.223 344.506 730.736 344.506C733.249 344.506 735.821 343.404 738.45 341.2V323.8C737.638 323.413 736.517 323.046 735.086 322.698C733.694 322.311 732.553 322.118 731.664 322.118C728.919 322.118 726.773 323.123 725.226 325.134C723.718 327.106 722.964 329.793 722.964 333.196ZM745.99 319.45H749.47L757.648 342.882H758.112L765.42 319.45H768.9L758.228 351.698C757.223 354.753 756.159 356.705 755.038 357.556C753.955 358.407 751.732 358.871 748.368 358.948V355.99C750.533 355.951 751.983 355.642 752.718 355.062C753.453 354.482 754.129 353.264 754.748 351.408L756.082 347.406L745.99 319.45ZM799.524 345.666L800.278 342.65C804.106 343.926 807.064 344.564 809.152 344.564C811.24 344.564 812.845 344.119 813.966 343.23C815.126 342.302 815.706 341.084 815.706 339.576C815.706 338.068 815.242 336.966 814.314 336.27C813.425 335.535 811.549 334.839 808.688 334.182C805.827 333.525 803.681 332.577 802.25 331.34C800.819 330.18 800.104 328.44 800.104 326.12C800.104 323.8 800.974 322.041 802.714 320.842C804.493 319.605 806.774 318.986 809.558 318.986C812.342 318.986 815.358 319.605 818.606 320.842L817.794 323.568C814.507 322.485 811.859 321.944 809.848 321.944C807.837 321.944 806.252 322.292 805.092 322.988C803.932 323.761 803.352 324.805 803.352 326.12C803.352 327.435 803.855 328.459 804.86 329.194C805.904 329.929 807.895 330.663 810.834 331.398C813.773 332.133 815.861 333.08 817.098 334.24C818.335 335.361 818.954 337.14 818.954 339.576C818.954 342.012 818.123 343.945 816.46 345.376C814.836 346.807 812.516 347.522 809.5 347.522C806.484 347.522 803.159 346.903 799.524 345.666ZM824.986 333.254C824.986 328.807 825.895 325.347 827.712 322.872C829.568 320.359 832.255 319.102 835.774 319.102C839.293 319.102 841.903 320.262 843.604 322.582C845.344 324.902 846.214 327.995 846.214 331.862L846.04 334.762H828.292C828.485 337.662 829.259 340.021 830.612 341.838C831.965 343.617 833.821 344.506 836.18 344.506C838.577 344.506 841.381 343.945 844.59 342.824L845.46 345.724C842.328 346.923 839.389 347.522 836.644 347.522C832.855 347.522 829.955 346.265 827.944 343.752C825.972 341.2 824.986 337.701 824.986 333.254ZM836.006 322.06C831.134 322.06 828.563 325.327 828.292 331.862H842.908C842.908 325.327 840.607 322.06 836.006 322.06ZM851.898 347V344.1H858.51V322.35H851.898V319.45H861.584L861.7 322.814C862.937 322.041 864.677 321.267 866.92 320.494C869.163 319.721 871.135 319.257 872.836 319.102H873.474V322.524H872.836C871.251 322.64 869.279 323.027 866.92 323.684C864.6 324.341 862.86 325.018 861.7 325.714V344.1H870.98V347H851.898ZM876.374 319.45H879.854L887.452 344.216H888.496L895.804 319.45H899.284L890.874 347H885.074L876.374 319.45ZM903.286 333.254C903.286 328.807 904.195 325.347 906.012 322.872C907.868 320.359 910.555 319.102 914.074 319.102C917.593 319.102 920.203 320.262 921.904 322.582C923.644 324.902 924.514 327.995 924.514 331.862L924.34 334.762H906.592C906.785 337.662 907.559 340.021 908.912 341.838C910.265 343.617 912.121 344.506 914.48 344.506C916.877 344.506 919.681 343.945 922.89 342.824L923.76 345.724C920.628 346.923 917.689 347.522 914.944 347.522C911.155 347.522 908.255 346.265 906.244 343.752C904.272 341.2 903.286 337.701 903.286 333.254ZM914.306 322.06C909.434 322.06 906.863 325.327 906.592 331.862H921.208C921.208 325.327 918.907 322.06 914.306 322.06ZM930.198 347V344.1H936.81V322.35H930.198V319.45H939.884L940 322.814C941.237 322.041 942.977 321.267 945.22 320.494C947.463 319.721 949.435 319.257 951.136 319.102H951.774V322.524H951.136C949.551 322.64 947.579 323.027 945.22 323.684C942.9 324.341 941.16 325.018 940 325.714V344.1H949.28V347H930.198ZM956.124 345.666L956.878 342.65C960.706 343.926 963.664 344.564 965.752 344.564C967.84 344.564 969.445 344.119 970.566 343.23C971.726 342.302 972.306 341.084 972.306 339.576C972.306 338.068 971.842 336.966 970.914 336.27C970.025 335.535 968.149 334.839 965.288 334.182C962.427 333.525 960.281 332.577 958.85 331.34C957.419 330.18 956.704 328.44 956.704 326.12C956.704 323.8 957.574 322.041 959.314 320.842C961.093 319.605 963.374 318.986 966.158 318.986C968.942 318.986 971.958 319.605 975.206 320.842L974.394 323.568C971.107 322.485 968.459 321.944 966.448 321.944C964.437 321.944 962.852 322.292 961.692 322.988C960.532 323.761 959.952 324.805 959.952 326.12C959.952 327.435 960.455 328.459 961.46 329.194C962.504 329.929 964.495 330.663 967.434 331.398C970.373 332.133 972.461 333.08 973.698 334.24C974.935 335.361 975.554 337.14 975.554 339.576C975.554 342.012 974.723 343.945 973.06 345.376C971.436 346.807 969.116 347.522 966.1 347.522C963.084 347.522 959.759 346.903 956.124 345.666ZM1008.61 347V344.1H1017.08V322.35H1008.61V319.45H1020.16V344.1H1028.62V347H1008.61ZM1015.86 311.272C1015.86 310.499 1016.08 309.899 1016.5 309.474C1016.97 309.049 1017.58 308.836 1018.36 308.836C1019.94 308.836 1020.74 309.687 1020.74 311.388C1020.74 313.089 1019.94 313.921 1018.36 313.882C1016.7 313.882 1015.86 313.012 1015.86 311.272ZM1037.27 319.45L1037.38 321.77C1041.13 319.991 1044.25 319.102 1046.72 319.102C1049.19 319.102 1051.13 319.953 1052.52 321.654C1053.95 323.355 1054.67 325.675 1054.67 328.614V347H1051.59V328.614C1051.59 326.719 1051.13 325.153 1050.2 323.916C1049.27 322.717 1047.88 322.118 1046.02 322.118C1044.17 322.118 1041.29 322.969 1037.38 324.67V347H1034.31V319.45H1037.27ZM1087.03 319.45L1087.2 321.19C1089.14 319.798 1090.63 319.102 1091.67 319.102C1094.22 319.102 1095.98 319.933 1096.95 321.596C1099.11 319.933 1101.01 319.102 1102.63 319.102C1105.15 319.102 1106.87 319.875 1107.79 321.422C1108.72 322.969 1109.19 325.347 1109.19 328.556V347H1106.11V328.556C1106.11 326.352 1105.88 324.728 1105.42 323.684C1104.95 322.601 1104.06 322.06 1102.75 322.06C1101.43 322.06 1099.81 322.679 1097.88 323.916C1098.11 325.231 1098.22 326.777 1098.22 328.556V338.184H1095.15V328.556C1095.15 326.352 1094.92 324.728 1094.45 323.684C1093.95 322.601 1093.04 322.06 1091.73 322.06C1090.41 322.06 1088.91 322.679 1087.2 323.916V347H1084.13V319.45H1087.03ZM1113.01 347V344.1H1121.48V322.35H1113.01V319.45H1124.56V344.1H1133.02V347H1113.01ZM1120.26 311.272C1120.26 310.499 1120.48 309.899 1120.9 309.474C1121.37 309.049 1121.98 308.836 1122.76 308.836C1124.34 308.836 1125.14 309.687 1125.14 311.388C1125.14 313.089 1124.34 313.921 1122.76 313.882C1121.1 313.882 1120.26 313.012 1120.26 311.272ZM1141.67 319.45L1141.78 321.77C1145.53 319.991 1148.65 319.102 1151.12 319.102C1153.59 319.102 1155.53 319.953 1156.92 321.654C1158.35 323.355 1159.07 325.675 1159.07 328.614V347H1155.99V328.614C1155.99 326.719 1155.53 325.153 1154.6 323.916C1153.67 322.717 1152.28 322.118 1150.42 322.118C1148.57 322.118 1145.69 322.969 1141.78 324.67V347H1138.71V319.45H1141.67ZM1182.09 347L1181.98 344.622C1178.26 346.555 1175.17 347.522 1172.7 347.522C1170.22 347.522 1168.27 346.671 1166.84 344.97C1165.41 343.269 1164.69 340.949 1164.69 338.01V319.45H1167.77V338.01C1167.77 339.905 1168.21 341.471 1169.1 342.708C1170.03 343.907 1171.42 344.506 1173.28 344.506C1175.13 344.506 1178.03 343.539 1181.98 341.606V319.45H1185.05V347H1182.09ZM1189.75 323.104V320.204H1195.37V313.186L1198.45 312.606V320.204H1211.73V323.104H1198.45V336.328C1198.45 339.267 1198.87 341.393 1199.72 342.708C1200.61 343.984 1202.18 344.622 1204.42 344.622C1205.27 344.622 1206.59 344.487 1208.37 344.216C1210.14 343.907 1211.36 343.636 1212.02 343.404L1212.72 346.246C1211.98 346.517 1210.63 346.807 1208.66 347.116C1206.72 347.425 1205.31 347.58 1204.42 347.58C1200.94 347.58 1198.56 346.671 1197.29 344.854C1196.01 342.998 1195.37 340.195 1195.37 336.444V323.104H1189.75ZM1216.49 333.254C1216.49 328.807 1217.39 325.347 1219.21 322.872C1221.07 320.359 1223.76 319.102 1227.27 319.102C1230.79 319.102 1233.4 320.262 1235.1 322.582C1236.84 324.902 1237.71 327.995 1237.71 331.862L1237.54 334.762H1219.79C1219.99 337.662 1220.76 340.021 1222.11 341.838C1223.47 343.617 1225.32 344.506 1227.68 344.506C1230.08 344.506 1232.88 343.945 1236.09 342.824L1236.96 345.724C1233.83 346.923 1230.89 347.522 1228.14 347.522C1224.35 347.522 1221.45 346.265 1219.44 343.752C1217.47 341.2 1216.49 337.701 1216.49 333.254ZM1227.51 322.06C1222.63 322.06 1220.06 325.327 1219.79 331.862H1234.41C1234.41 325.327 1232.11 322.06 1227.51 322.06ZM1243.22 345.666L1243.98 342.65C1247.81 343.926 1250.76 344.564 1252.85 344.564C1254.94 344.564 1256.54 344.119 1257.67 343.23C1258.83 342.302 1259.41 341.084 1259.41 339.576C1259.41 338.068 1258.94 336.966 1258.01 336.27C1257.12 335.535 1255.25 334.839 1252.39 334.182C1249.53 333.525 1247.38 332.577 1245.95 331.34C1244.52 330.18 1243.8 328.44 1243.8 326.12C1243.8 323.8 1244.67 322.041 1246.41 320.842C1248.19 319.605 1250.47 318.986 1253.26 318.986C1256.04 318.986 1259.06 319.605 1262.31 320.842L1261.49 323.568C1258.21 322.485 1255.56 321.944 1253.55 321.944C1251.54 321.944 1249.95 322.292 1248.79 322.988C1247.63 323.761 1247.05 324.805 1247.05 326.12C1247.05 327.435 1247.55 328.459 1248.56 329.194C1249.6 329.929 1251.6 330.663 1254.53 331.398C1257.47 332.133 1259.56 333.08 1260.8 334.24C1262.04 335.361 1262.65 337.14 1262.65 339.576C1262.65 342.012 1261.82 343.945 1260.16 345.376C1258.54 346.807 1256.22 347.522 1253.2 347.522C1250.18 347.522 1246.86 346.903 1243.22 345.666ZM1276.11 347.348V342.36H1280.52V347.348H1276.11ZM1276.92 336.096L1276.4 307.096H1280.23L1279.71 336.096H1276.92Z" fill="white"/>
</svg>
