<svg width="1431" height="256" viewBox="0 0 1431 256" fill="none" xmlns="http://www.w3.org/2000/svg">
<rect width="256" height="256" rx="60" fill="#00D3F3"/>
<path d="M106.907 52.3077V75.1538C113.215 75.6667 118.882 77.0256 123.907 79.2308C128.984 81.4359 133.394 84.1282 137.138 87.3077L125.369 99.6154C122.548 97.3077 119.548 95.5385 116.369 94.3077C113.24 93.0769 110.087 92.359 106.907 92.1538V119C113.779 121.308 119.599 123.897 124.369 126.769C129.189 129.59 132.856 133.077 135.369 137.231C137.882 141.385 139.138 146.538 139.138 152.692C139.138 158.385 137.882 163.59 135.369 168.308C132.907 173.026 129.266 176.949 124.446 180.077C119.676 183.154 113.83 185.128 106.907 186V208.923H94.5225V186.462C86.9328 185.897 80.1636 184.231 74.2148 181.462C68.2661 178.641 63.3943 175.436 59.5995 171.846L71.3687 158.308C74.8559 161.282 78.4456 163.667 82.1379 165.462C85.8302 167.256 89.9584 168.308 94.5225 168.615V136.615C83.3943 132.974 75.4456 128.667 70.6764 123.692C65.9072 118.718 63.5225 112.59 63.5225 105.308C63.5225 99.7692 64.7789 94.8718 67.2918 90.6154C69.8046 86.3077 73.3687 82.8462 77.9841 80.2308C82.6507 77.5641 88.1636 75.8974 94.5225 75.2308V52.3077H106.907ZM106.907 141.538V168.154C113.266 166.718 116.446 162.513 116.446 155.538C116.446 152.564 115.805 149.974 114.523 147.769C113.24 145.513 110.702 143.436 106.907 141.538ZM94.5225 92.3077C91.3943 92.8205 89.061 94.0513 87.5225 96C86.0354 97.8974 85.2918 100.051 85.2918 102.462C85.2918 105.026 85.8046 107.179 86.8302 108.923C87.9072 110.615 90.4713 112.41 94.5225 114.308V92.3077ZM189.577 77.3846L186.5 144.769H166.885L163.731 77.3846H189.577ZM176.654 158.769C180.551 158.769 183.833 160.154 186.5 162.923C189.218 165.641 190.577 168.897 190.577 172.692C190.577 176.487 189.218 179.769 186.5 182.538C183.833 185.256 180.551 186.615 176.654 186.615C172.859 186.615 169.577 185.256 166.808 182.538C164.09 179.769 162.731 176.487 162.731 172.692C162.731 168.897 164.09 165.641 166.808 162.923C169.577 160.154 172.859 158.769 176.654 158.769Z" fill="white"/>
<path d="M371.711 192H328.583V64.7273H372.581C385.217 64.7273 396.072 67.2752 405.145 72.3711C414.26 77.4255 421.261 84.6965 426.15 94.1839C431.039 103.671 433.483 115.023 433.483 128.239C433.483 141.497 431.018 152.89 426.088 162.419C421.199 171.948 414.135 179.26 404.896 184.356C395.699 189.452 384.637 192 371.711 192ZM351.638 172.051H370.593C379.459 172.051 386.854 170.436 392.778 167.204C398.703 163.931 403.156 159.063 406.139 152.6C409.122 146.096 410.614 137.975 410.614 128.239C410.614 118.503 409.122 110.424 406.139 104.003C403.156 97.5398 398.744 92.7132 392.903 89.5231C387.102 86.2915 379.894 84.6758 371.276 84.6758H351.638V172.051ZM496.653 193.864C487.083 193.864 478.818 191.876 471.858 187.898C464.939 183.88 459.615 178.204 455.886 170.871C452.158 163.496 450.293 154.817 450.293 144.832C450.293 135.013 452.158 126.396 455.886 118.98C459.656 111.522 464.918 105.722 471.671 101.579C478.424 97.3948 486.358 95.3026 495.473 95.3026C501.356 95.3026 506.907 96.2554 512.127 98.1612C517.389 100.026 522.029 102.926 526.048 106.862C530.108 110.797 533.298 115.81 535.618 121.901C537.938 127.949 539.098 135.158 539.098 143.527V150.425H460.858V135.262H517.534C517.493 130.953 516.56 127.121 514.738 123.765C512.915 120.368 510.367 117.695 507.094 115.748C503.862 113.801 500.092 112.827 495.783 112.827C491.185 112.827 487.145 113.946 483.665 116.183C480.185 118.379 477.471 121.279 475.524 124.884C473.618 128.446 472.645 132.362 472.603 136.629V149.866C472.603 155.417 473.618 160.182 475.648 164.159C477.679 168.095 480.516 171.119 484.162 173.232C487.808 175.304 492.075 176.339 496.964 176.339C500.237 176.339 503.199 175.884 505.851 174.972C508.502 174.019 510.802 172.632 512.749 170.809C514.696 168.986 516.167 166.728 517.161 164.035L538.166 166.396C536.84 171.948 534.313 176.795 530.585 180.938C526.897 185.04 522.174 188.23 516.415 190.509C510.657 192.746 504.069 193.864 496.653 193.864ZM558.13 227.795V96.5455H580.254V112.33H581.559C582.719 110.01 584.355 107.545 586.468 104.935C588.581 102.283 591.44 100.026 595.044 98.1612C598.649 96.2554 603.247 95.3026 608.84 95.3026C616.215 95.3026 622.864 97.1876 628.789 100.958C634.755 104.686 639.478 110.217 642.958 117.55C646.48 124.842 648.24 133.791 648.24 144.397C648.24 154.879 646.521 163.786 643.082 171.119C639.644 178.452 634.962 184.045 629.038 187.898C623.113 191.751 616.401 193.678 608.903 193.678C603.434 193.678 598.897 192.766 595.293 190.944C591.688 189.121 588.788 186.925 586.593 184.356C584.438 181.746 582.76 179.281 581.559 176.961H580.627V227.795H558.13ZM580.192 144.273C580.192 150.446 581.062 155.852 582.802 160.493C584.583 165.133 587.131 168.758 590.446 171.368C593.801 173.937 597.862 175.221 602.626 175.221C607.598 175.221 611.761 173.895 615.117 171.244C618.473 168.551 621 164.884 622.699 160.244C624.439 155.562 625.309 150.239 625.309 144.273C625.309 138.348 624.46 133.087 622.761 128.488C621.062 123.889 618.535 120.285 615.179 117.675C611.823 115.065 607.639 113.76 602.626 113.76C597.82 113.76 593.739 115.023 590.383 117.55C587.028 120.078 584.48 123.62 582.74 128.177C581.041 132.734 580.192 138.1 580.192 144.273ZM690.002 64.7273V192H667.505V64.7273H690.002ZM754.772 193.864C745.45 193.864 737.372 191.814 730.536 187.712C723.7 183.61 718.397 177.872 714.627 170.498C710.898 163.123 709.034 154.506 709.034 144.646C709.034 134.785 710.898 126.147 714.627 118.731C718.397 111.315 723.7 105.556 730.536 101.455C737.372 97.3533 745.45 95.3026 754.772 95.3026C764.094 95.3026 772.173 97.3533 779.009 101.455C785.845 105.556 791.127 111.315 794.856 118.731C798.626 126.147 800.511 134.785 800.511 144.646C800.511 154.506 798.626 163.123 794.856 170.498C791.127 177.872 785.845 183.61 779.009 187.712C772.173 191.814 764.094 193.864 754.772 193.864ZM754.896 175.842C759.951 175.842 764.177 174.454 767.574 171.679C770.971 168.861 773.499 165.091 775.156 160.368C776.854 155.645 777.704 150.384 777.704 144.583C777.704 138.742 776.854 133.46 775.156 128.737C773.499 123.972 770.971 120.181 767.574 117.364C764.177 114.547 759.951 113.138 754.896 113.138C749.718 113.138 745.409 114.547 741.97 117.364C738.573 120.181 736.025 123.972 734.327 128.737C732.669 133.46 731.841 138.742 731.841 144.583C731.841 150.384 732.669 155.645 734.327 160.368C736.025 165.091 738.573 168.861 741.97 171.679C745.409 174.454 749.718 175.842 754.896 175.842ZM830.34 227.795C827.275 227.795 824.437 227.547 821.827 227.05C819.258 226.594 817.207 226.055 815.674 225.434L820.894 207.909C824.167 208.862 827.088 209.318 829.657 209.276C832.225 209.235 834.483 208.427 836.431 206.853C838.419 205.32 840.097 202.751 841.464 199.147L843.391 193.989L808.776 96.5455H832.64L854.639 168.634H855.633L877.695 96.5455H901.621L863.401 203.559C861.62 208.613 859.258 212.943 856.317 216.547C853.375 220.193 849.771 222.969 845.504 224.875C841.278 226.822 836.223 227.795 830.34 227.795ZM956.199 193.864C946.629 193.864 938.364 191.876 931.403 187.898C924.485 183.88 919.161 178.204 915.432 170.871C911.704 163.496 909.839 154.817 909.839 144.832C909.839 135.013 911.704 126.396 915.432 118.98C919.202 111.522 924.464 105.722 931.217 101.579C937.97 97.3948 945.904 95.3026 955.019 95.3026C960.902 95.3026 966.453 96.2554 971.673 98.1612C976.935 100.026 981.575 102.926 985.594 106.862C989.654 110.797 992.844 115.81 995.164 121.901C997.484 127.949 998.644 135.158 998.644 143.527V150.425H920.404V135.262H977.08C977.039 130.953 976.106 127.121 974.283 123.765C972.461 120.368 969.913 117.695 966.64 115.748C963.408 113.801 959.638 112.827 955.329 112.827C950.731 112.827 946.691 113.946 943.211 116.183C939.731 118.379 937.017 121.279 935.07 124.884C933.164 128.446 932.191 132.362 932.149 136.629V149.866C932.149 155.417 933.164 160.182 935.194 164.159C937.224 168.095 940.062 171.119 943.708 173.232C947.354 175.304 951.621 176.339 956.51 176.339C959.783 176.339 962.745 175.884 965.397 174.972C968.048 174.019 970.348 172.632 972.295 170.809C974.242 168.986 975.713 166.728 976.707 164.035L997.712 166.396C996.386 171.948 993.859 176.795 990.13 180.938C986.443 185.04 981.72 188.23 975.961 190.509C970.203 192.746 963.615 193.864 956.199 193.864ZM1017.68 192V96.5455H1039.49V112.455H1040.48C1042.22 106.944 1045.21 102.698 1049.43 99.7148C1053.7 96.6905 1058.57 95.1783 1064.04 95.1783C1065.28 95.1783 1066.67 95.2404 1068.2 95.3647C1069.77 95.4476 1071.08 95.5926 1072.12 95.7997V116.494C1071.16 116.163 1069.65 115.873 1067.58 115.624C1065.55 115.334 1063.58 115.189 1061.67 115.189C1057.57 115.189 1053.89 116.08 1050.61 117.861C1047.38 119.601 1044.83 122.025 1042.97 125.132C1041.1 128.239 1040.17 131.823 1040.17 135.883V192H1017.68ZM1088.06 192V64.7273H1135.78C1145.56 64.7273 1153.76 66.5502 1160.39 70.196C1167.06 73.8419 1172.1 78.8549 1175.49 85.2351C1178.93 91.5739 1180.65 98.7827 1180.65 106.862C1180.65 115.023 1178.93 122.273 1175.49 128.612C1172.05 134.951 1166.98 139.943 1160.27 143.589C1153.56 147.194 1145.29 148.996 1135.47 148.996H1103.84V130.042H1132.36C1138.08 130.042 1142.76 129.047 1146.41 127.059C1150.06 125.07 1152.75 122.336 1154.49 118.855C1156.27 115.375 1157.16 111.377 1157.16 106.862C1157.16 102.346 1156.27 98.3684 1154.49 94.9297C1152.75 91.491 1150.03 88.8188 1146.35 86.913C1142.7 84.9658 1138 83.9922 1132.24 83.9922H1111.11V192H1088.06ZM1200.68 192V64.7273H1223.73V118.607H1282.71V64.7273H1305.83V192H1282.71V137.934H1223.73V192H1200.68ZM1330.9 192V64.7273H1378.63C1388.41 64.7273 1396.61 66.5502 1403.24 70.196C1409.91 73.8419 1414.94 78.8549 1418.34 85.2351C1421.78 91.5739 1423.5 98.7827 1423.5 106.862C1423.5 115.023 1421.78 122.273 1418.34 128.612C1414.9 134.951 1409.83 139.943 1403.11 143.589C1396.4 147.194 1388.14 148.996 1378.32 148.996H1346.69V130.042H1375.21C1380.93 130.042 1385.61 129.047 1389.26 127.059C1392.9 125.07 1395.59 122.336 1397.33 118.855C1399.12 115.375 1400.01 111.377 1400.01 106.862C1400.01 102.346 1399.12 98.3684 1397.33 94.9297C1395.59 91.491 1392.88 88.8188 1389.19 86.913C1385.55 84.9658 1380.85 83.9922 1375.09 83.9922H1353.96V192H1330.9Z" fill="#00D3F3"/>
</svg>
